STARTFONT 2.1
FONT -benis-lemon-abunai-abunai-medium-r-normal--10-110-75-75-m-50-ISO10646-1
SIZE 10 75 75
FONTBOUNDINGBOX 10 12 -2 -3
COMMENT "Generated by fontforge, http://fontforge.sourceforge.net"
STARTPROPERTIES 26
FONTNAME_REGISTRY ""
FOUNDRY "artwiz"
FAMILY_NAME "lemon"
WEIGHT_NAME "medium"
SLANT "r"
SETWIDTH_NAME "normal"
ADD_STYLE_NAME ""
PIXEL_SIZE 10
POINT_SIZE 110
RESOLUTION_X 75
RESOLUTION_Y 75
SPACING "m"
AVERAGE_WIDTH 50
CHARSET_REGISTRY "ISO10646"
CHARSET_ENCODING "1"
OPYRIGHT "artwiz, fixed by aleczapka"
FACE_NAME "lemon"
WEIGHT 10
X_HEIGHT 6
QUAD_WIDTH 5
_ORIGINAL_FONT_NAME "lime"
_GBDFED_INFO "Edited with gbdfed 1.6."
CHARSET_COLLECTIONS "ISO8859-2 ISO8859-5 ISO8859-7 ISO8859-9 ISO8859-4 ISO10646-1"
DEFAULT_CHAR 52
FONT_DESCENT 2
FONT_ASCENT 8
ENDPROPERTIES
CHARS 1005
STARTCHAR space
ENCODING 32
SWIDTH 480 0
DWIDTH 5 0
BBX 0 0 0 0
BITMAP
ENDCHAR
STARTCHAR exclam
ENCODING 33
SWIDTH 480 0
DWIDTH 5 0
BBX 1 6 2 0
BITMAP
80
80
80
80
00
80
ENDCHAR
STARTCHAR quotedbl
ENCODING 34
SWIDTH 480 0
DWIDTH 5 0
BBX 3 3 1 4
BITMAP
A0
A0
A0
ENDCHAR
STARTCHAR numbersign
ENCODING 35
SWIDTH 480 0
DWIDTH 5 0
BBX 5 5 0 0
BITMAP
50
D8
50
D8
50
ENDCHAR
STARTCHAR dollar
ENCODING 36
SWIDTH 480 0
DWIDTH 5 0
BBX 4 8 1 -1
BITMAP
20
70
A0
60
50
50
E0
40
ENDCHAR
STARTCHAR percent
ENCODING 37
SWIDTH 480 0
DWIDTH 5 0
BBX 4 6 1 0
BITMAP
90
90
20
40
90
90
ENDCHAR
STARTCHAR ampersand
ENCODING 38
SWIDTH 480 0
DWIDTH 5 0
BBX 5 6 0 0
BITMAP
40
A0
40
A8
90
68
ENDCHAR
STARTCHAR quotesingle
ENCODING 39
SWIDTH 480 0
DWIDTH 5 0
BBX 1 3 2 4
BITMAP
80
80
80
ENDCHAR
STARTCHAR parenleft
ENCODING 40
SWIDTH 480 0
DWIDTH 5 0
BBX 3 8 2 -1
BITMAP
20
40
80
80
80
80
40
20
ENDCHAR
STARTCHAR parenright
ENCODING 41
SWIDTH 480 0
DWIDTH 5 0
BBX 3 8 1 -1
BITMAP
80
40
20
20
20
20
40
80
ENDCHAR
STARTCHAR asterisk
ENCODING 42
SWIDTH 480 0
DWIDTH 5 0
BBX 4 5 1 0
BITMAP
90
60
F0
60
90
ENDCHAR
STARTCHAR plus
ENCODING 43
SWIDTH 480 0
DWIDTH 5 0
BBX 5 5 0 1
BITMAP
20
20
F8
20
20
ENDCHAR
STARTCHAR comma
ENCODING 44
SWIDTH 480 0
DWIDTH 5 0
BBX 2 3 1 -1
BITMAP
40
40
80
ENDCHAR
STARTCHAR hyphen
ENCODING 45
SWIDTH 480 0
DWIDTH 5 0
BBX 4 1 1 3
BITMAP
F0
ENDCHAR
STARTCHAR period
ENCODING 46
SWIDTH 480 0
DWIDTH 5 0
BBX 1 2 2 0
BITMAP
80
80
ENDCHAR
STARTCHAR slash
ENCODING 47
SWIDTH 480 0
DWIDTH 5 0
BBX 4 8 1 -1
BITMAP
10
10
20
20
40
40
80
80
ENDCHAR
STARTCHAR zero
ENCODING 48
SWIDTH 480 0
DWIDTH 5 0
BBX 4 6 1 0
BITMAP
60
90
B0
D0
90
60
ENDCHAR
STARTCHAR one
ENCODING 49
SWIDTH 480 0
DWIDTH 5 0
BBX 2 6 1 0
BITMAP
40
C0
40
40
40
40
ENDCHAR
STARTCHAR two
ENCODING 50
SWIDTH 480 0
DWIDTH 5 0
BBX 4 6 1 0
BITMAP
E0
10
10
60
80
F0
ENDCHAR
STARTCHAR three
ENCODING 51
SWIDTH 480 0
DWIDTH 5 0
BBX 4 6 1 0
BITMAP
E0
10
60
10
10
E0
ENDCHAR
STARTCHAR four
ENCODING 52
SWIDTH 480 0
DWIDTH 5 0
BBX 4 6 1 0
BITMAP
90
90
90
70
10
10
ENDCHAR
STARTCHAR five
ENCODING 53
SWIDTH 480 0
DWIDTH 5 0
BBX 4 6 1 0
BITMAP
F0
80
E0
10
10
E0
ENDCHAR
STARTCHAR six
ENCODING 54
SWIDTH 480 0
DWIDTH 5 0
BBX 4 6 1 0
BITMAP
60
80
E0
90
90
60
ENDCHAR
STARTCHAR seven
ENCODING 55
SWIDTH 480 0
DWIDTH 5 0
BBX 4 6 1 0
BITMAP
F0
10
20
20
40
40
ENDCHAR
STARTCHAR eight
ENCODING 56
SWIDTH 480 0
DWIDTH 5 0
BBX 4 6 1 0
BITMAP
60
90
60
90
90
60
ENDCHAR
STARTCHAR nine
ENCODING 57
SWIDTH 480 0
DWIDTH 5 0
BBX 4 6 1 0
BITMAP
60
90
90
70
10
60
ENDCHAR
STARTCHAR colon
ENCODING 58
SWIDTH 480 0
DWIDTH 5 0
BBX 1 5 2 0
BITMAP
80
80
00
80
80
ENDCHAR
STARTCHAR semicolon
ENCODING 59
SWIDTH 480 0
DWIDTH 5 0
BBX 2 6 1 -1
BITMAP
40
40
00
40
40
80
ENDCHAR
STARTCHAR less
ENCODING 60
SWIDTH 480 0
DWIDTH 5 0
BBX 3 5 1 0
BITMAP
20
40
80
40
20
ENDCHAR
STARTCHAR equal
ENCODING 61
SWIDTH 480 0
DWIDTH 5 0
BBX 3 3 1 2
BITMAP
E0
00
E0
ENDCHAR
STARTCHAR greater
ENCODING 62
SWIDTH 480 0
DWIDTH 5 0
BBX 3 5 2 0
BITMAP
80
40
20
40
80
ENDCHAR
STARTCHAR question
ENCODING 63
SWIDTH 480 0
DWIDTH 5 0
BBX 3 6 1 0
BITMAP
E0
A0
20
40
00
40
ENDCHAR
STARTCHAR at
ENCODING 64
SWIDTH 480 0
DWIDTH 5 0
BBX 4 6 1 0
BITMAP
60
90
B0
B0
80
70
ENDCHAR
STARTCHAR A
ENCODING 65
SWIDTH 480 0
DWIDTH 5 0
BBX 4 6 1 0
BITMAP
60
90
90
F0
90
90
ENDCHAR
STARTCHAR B
ENCODING 66
SWIDTH 480 0
DWIDTH 5 0
BBX 4 6 1 0
BITMAP
E0
90
E0
90
90
E0
ENDCHAR
STARTCHAR C
ENCODING 67
SWIDTH 480 0
DWIDTH 5 0
BBX 4 6 1 0
BITMAP
70
80
80
80
80
70
ENDCHAR
STARTCHAR D
ENCODING 68
SWIDTH 480 0
DWIDTH 5 0
BBX 4 6 1 0
BITMAP
E0
90
90
90
90
E0
ENDCHAR
STARTCHAR E
ENCODING 69
SWIDTH 480 0
DWIDTH 5 0
BBX 4 6 1 0
BITMAP
F0
80
E0
80
80
F0
ENDCHAR
STARTCHAR F
ENCODING 70
SWIDTH 480 0
DWIDTH 5 0
BBX 4 6 1 0
BITMAP
F0
80
E0
80
80
80
ENDCHAR
STARTCHAR G
ENCODING 71
SWIDTH 480 0
DWIDTH 5 0
BBX 4 6 1 0
BITMAP
70
80
80
B0
90
70
ENDCHAR
STARTCHAR H
ENCODING 72
SWIDTH 480 0
DWIDTH 5 0
BBX 4 6 1 0
BITMAP
90
90
F0
90
90
90
ENDCHAR
STARTCHAR I
ENCODING 73
SWIDTH 480 0
DWIDTH 5 0
BBX 3 6 1 0
BITMAP
E0
40
40
40
40
E0
ENDCHAR
STARTCHAR J
ENCODING 74
SWIDTH 480 0
DWIDTH 5 0
BBX 4 6 1 0
BITMAP
70
10
10
10
90
60
ENDCHAR
STARTCHAR K
ENCODING 75
SWIDTH 480 0
DWIDTH 5 0
BBX 4 6 1 0
BITMAP
90
A0
C0
A0
90
90
ENDCHAR
STARTCHAR L
ENCODING 76
SWIDTH 480 0
DWIDTH 5 0
BBX 4 6 1 0
BITMAP
80
80
80
80
80
F0
ENDCHAR
STARTCHAR M
ENCODING 77
SWIDTH 480 0
DWIDTH 5 0
BBX 4 6 1 0
BITMAP
90
F0
90
90
90
90
ENDCHAR
STARTCHAR N
ENCODING 78
SWIDTH 480 0
DWIDTH 5 0
BBX 4 6 1 0
BITMAP
90
D0
D0
B0
B0
90
ENDCHAR
STARTCHAR O
ENCODING 79
SWIDTH 480 0
DWIDTH 5 0
BBX 4 6 1 0
BITMAP
60
90
90
90
90
60
ENDCHAR
STARTCHAR P
ENCODING 80
SWIDTH 480 0
DWIDTH 5 0
BBX 4 6 1 0
BITMAP
E0
90
90
E0
80
80
ENDCHAR
STARTCHAR Q
ENCODING 81
SWIDTH 480 0
DWIDTH 5 0
BBX 4 7 1 -1
BITMAP
60
90
90
90
90
60
30
ENDCHAR
STARTCHAR R
ENCODING 82
SWIDTH 480 0
DWIDTH 5 0
BBX 4 6 1 0
BITMAP
E0
90
90
E0
90
90
ENDCHAR
STARTCHAR S
ENCODING 83
SWIDTH 480 0
DWIDTH 5 0
BBX 4 6 1 0
BITMAP
70
80
60
10
10
E0
ENDCHAR
STARTCHAR T
ENCODING 84
SWIDTH 480 0
DWIDTH 5 0
BBX 5 6 0 0
BITMAP
F8
20
20
20
20
20
ENDCHAR
STARTCHAR U
ENCODING 85
SWIDTH 480 0
DWIDTH 5 0
BBX 4 6 1 0
BITMAP
90
90
90
90
90
70
ENDCHAR
STARTCHAR V
ENCODING 86
SWIDTH 480 0
DWIDTH 5 0
BBX 4 6 1 0
BITMAP
90
90
90
60
60
60
ENDCHAR
STARTCHAR W
ENCODING 87
SWIDTH 480 0
DWIDTH 5 0
BBX 4 6 1 0
BITMAP
90
90
90
90
F0
90
ENDCHAR
STARTCHAR X
ENCODING 88
SWIDTH 480 0
DWIDTH 5 0
BBX 4 6 1 0
BITMAP
90
90
60
90
90
90
ENDCHAR
STARTCHAR Y
ENCODING 89
SWIDTH 480 0
DWIDTH 5 0
BBX 5 6 0 0
BITMAP
88
88
50
20
20
20
ENDCHAR
STARTCHAR Z
ENCODING 90
SWIDTH 480 0
DWIDTH 5 0
BBX 4 6 1 0
BITMAP
F0
10
20
40
80
F0
ENDCHAR
STARTCHAR bracketleft
ENCODING 91
SWIDTH 480 0
DWIDTH 5 0
BBX 3 8 1 -1
BITMAP
E0
80
80
80
80
80
80
E0
ENDCHAR
STARTCHAR backslash
ENCODING 92
SWIDTH 480 0
DWIDTH 5 0
BBX 4 8 1 -1
BITMAP
80
80
40
40
20
20
10
10
ENDCHAR
STARTCHAR bracketright
ENCODING 93
SWIDTH 480 0
DWIDTH 5 0
BBX 3 8 1 -1
BITMAP
E0
20
20
20
20
20
20
E0
ENDCHAR
STARTCHAR asciicircum
ENCODING 94
SWIDTH 480 0
DWIDTH 5 0
BBX 5 3 0 4
BITMAP
20
50
88
ENDCHAR
STARTCHAR underscore
ENCODING 95
SWIDTH 480 0
DWIDTH 5 0
BBX 4 1 1 -1
BITMAP
F0
ENDCHAR
STARTCHAR grave
ENCODING 96
SWIDTH 480 0
DWIDTH 5 0
BBX 2 3 2 4
BITMAP
80
80
40
ENDCHAR
STARTCHAR a
ENCODING 97
SWIDTH 480 0
DWIDTH 5 0
BBX 4 5 1 0
BITMAP
70
90
90
B0
50
ENDCHAR
STARTCHAR b
ENCODING 98
SWIDTH 480 0
DWIDTH 5 0
BBX 4 7 1 0
BITMAP
80
80
E0
90
90
90
E0
ENDCHAR
STARTCHAR c
ENCODING 99
SWIDTH 480 0
DWIDTH 5 0
BBX 4 5 1 0
BITMAP
70
80
80
80
70
ENDCHAR
STARTCHAR d
ENCODING 100
SWIDTH 480 0
DWIDTH 5 0
BBX 4 7 1 0
BITMAP
10
10
70
90
90
B0
50
ENDCHAR
STARTCHAR e
ENCODING 101
SWIDTH 480 0
DWIDTH 5 0
BBX 4 5 1 0
BITMAP
60
90
F0
80
70
ENDCHAR
STARTCHAR f
ENCODING 102
SWIDTH 480 0
DWIDTH 5 0
BBX 3 7 2 0
BITMAP
60
80
E0
80
80
80
80
ENDCHAR
STARTCHAR g
ENCODING 103
SWIDTH 480 0
DWIDTH 5 0
BBX 4 7 1 -2
BITMAP
70
90
90
B0
50
10
60
ENDCHAR
STARTCHAR h
ENCODING 104
SWIDTH 480 0
DWIDTH 5 0
BBX 4 7 1 0
BITMAP
80
80
E0
90
90
90
90
ENDCHAR
STARTCHAR i
ENCODING 105
SWIDTH 480 0
DWIDTH 5 0
BBX 2 7 2 0
BITMAP
40
00
C0
40
40
40
40
ENDCHAR
STARTCHAR j
ENCODING 106
SWIDTH 480 0
DWIDTH 5 0
BBX 3 9 1 -2
BITMAP
20
00
60
20
20
20
20
20
C0
ENDCHAR
STARTCHAR k
ENCODING 107
SWIDTH 480 0
DWIDTH 5 0
BBX 4 7 1 0
BITMAP
80
80
90
A0
E0
90
90
ENDCHAR
STARTCHAR l
ENCODING 108
SWIDTH 480 0
DWIDTH 5 0
BBX 2 7 2 0
BITMAP
C0
40
40
40
40
40
40
ENDCHAR
STARTCHAR m
ENCODING 109
SWIDTH 480 0
DWIDTH 5 0
BBX 4 5 1 0
BITMAP
90
F0
90
90
90
ENDCHAR
STARTCHAR n
ENCODING 110
SWIDTH 480 0
DWIDTH 5 0
BBX 4 5 1 0
BITMAP
E0
90
90
90
90
ENDCHAR
STARTCHAR o
ENCODING 111
SWIDTH 480 0
DWIDTH 5 0
BBX 4 5 1 0
BITMAP
60
90
90
90
60
ENDCHAR
STARTCHAR p
ENCODING 112
SWIDTH 480 0
DWIDTH 5 0
BBX 4 7 1 -2
BITMAP
E0
90
90
90
E0
80
80
ENDCHAR
STARTCHAR q
ENCODING 113
SWIDTH 480 0
DWIDTH 5 0
BBX 4 7 1 -2
BITMAP
70
90
90
90
70
10
10
ENDCHAR
STARTCHAR r
ENCODING 114
SWIDTH 480 0
DWIDTH 5 0
BBX 4 5 1 0
BITMAP
B0
C0
80
80
80
ENDCHAR
STARTCHAR s
ENCODING 115
SWIDTH 480 0
DWIDTH 5 0
BBX 4 5 1 0
BITMAP
70
80
60
10
E0
ENDCHAR
STARTCHAR t
ENCODING 116
SWIDTH 480 0
DWIDTH 5 0
BBX 3 6 1 0
BITMAP
40
E0
40
40
40
20
ENDCHAR
STARTCHAR u
ENCODING 117
SWIDTH 480 0
DWIDTH 5 0
BBX 4 5 1 0
BITMAP
90
90
90
90
70
ENDCHAR
STARTCHAR v
ENCODING 118
SWIDTH 480 0
DWIDTH 5 0
BBX 4 5 1 0
BITMAP
90
90
90
60
60
ENDCHAR
STARTCHAR w
ENCODING 119
SWIDTH 480 0
DWIDTH 5 0
BBX 4 5 1 0
BITMAP
90
90
90
F0
90
ENDCHAR
STARTCHAR x
ENCODING 120
SWIDTH 480 0
DWIDTH 5 0
BBX 4 5 1 0
BITMAP
90
90
60
90
90
ENDCHAR
STARTCHAR y
ENCODING 121
SWIDTH 480 0
DWIDTH 5 0
BBX 4 7 1 -2
BITMAP
90
90
90
90
70
10
60
ENDCHAR
STARTCHAR z
ENCODING 122
SWIDTH 480 0
DWIDTH 5 0
BBX 4 5 1 0
BITMAP
F0
20
40
80
F0
ENDCHAR
STARTCHAR braceleft
ENCODING 123
SWIDTH 480 0
DWIDTH 5 0
BBX 3 8 1 -1
BITMAP
20
40
40
C0
C0
40
40
20
ENDCHAR
STARTCHAR bar
ENCODING 124
SWIDTH 480 0
DWIDTH 5 0
BBX 1 10 2 -2
BITMAP
80
80
80
80
80
80
80
80
80
80
ENDCHAR
STARTCHAR braceright
ENCODING 125
SWIDTH 480 0
DWIDTH 5 0
BBX 3 8 2 -1
BITMAP
80
40
40
60
60
40
40
80
ENDCHAR
STARTCHAR asciitilde
ENCODING 126
SWIDTH 480 0
DWIDTH 5 0
BBX 5 4 0 1
BITMAP
40
A8
A8
10
ENDCHAR
STARTCHAR uni0095
ENCODING 149
SWIDTH 480 0
DWIDTH 5 0
BBX 4 4 1 1
BITMAP
60
F0
F0
60
ENDCHAR
STARTCHAR exclamdown
ENCODING 161
SWIDTH 480 0
DWIDTH 5 0
BBX 3 6 1 0
BITMAP
40
00
C0
40
40
60
ENDCHAR
STARTCHAR cent
ENCODING 162
SWIDTH 480 0
DWIDTH 5 0
BBX 4 7 0 -1
BITMAP
10
70
A0
A0
A0
70
40
ENDCHAR
STARTCHAR sterling
ENCODING 163
SWIDTH 480 0
DWIDTH 5 0
BBX 5 7 0 0
BITMAP
30
40
40
E0
40
48
F0
ENDCHAR
STARTCHAR currency
ENCODING 164
SWIDTH 480 0
DWIDTH 5 0
BBX 5 6 0 0
BITMAP
88
70
50
50
70
88
ENDCHAR
STARTCHAR yen
ENCODING 165
SWIDTH 480 0
DWIDTH 5 0
BBX 5 9 0 -1
BITMAP
88
88
50
20
F8
20
F8
20
20
ENDCHAR
STARTCHAR brokenbar
ENCODING 166
SWIDTH 480 0
DWIDTH 5 0
BBX 2 1 1 1
BITMAP
C0
ENDCHAR
STARTCHAR section
ENCODING 167
SWIDTH 480 0
DWIDTH 5 0
BBX 5 9 0 -1
BITMAP
30
48
20
70
88
70
20
90
60
ENDCHAR
STARTCHAR dieresis
ENCODING 168
SWIDTH 480 0
DWIDTH 5 0
BBX 3 1 1 5
BITMAP
A0
ENDCHAR
STARTCHAR copyright
ENCODING 169
SWIDTH 480 0
DWIDTH 5 0
BBX 6 7 0 0
BITMAP
38
44
B8
A0
B8
44
38
ENDCHAR
STARTCHAR ordfeminine
ENCODING 170
SWIDTH 480 0
DWIDTH 5 0
BBX 4 4 1 4
BITMAP
70
90
90
70
ENDCHAR
STARTCHAR guillemotleft
ENCODING 171
SWIDTH 480 0
DWIDTH 5 0
BBX 4 3 1 2
BITMAP
50
A0
50
ENDCHAR
STARTCHAR logicalnot
ENCODING 172
SWIDTH 480 0
DWIDTH 5 0
BBX 5 3 0 1
BITMAP
F8
08
08
ENDCHAR
STARTCHAR registered
ENCODING 174
SWIDTH 480 0
DWIDTH 5 0
BBX 7 7 -1 0
BITMAP
38
44
BA
B2
AA
44
38
ENDCHAR
STARTCHAR macron
ENCODING 175
SWIDTH 480 0
DWIDTH 5 0
BBX 3 1 1 6
BITMAP
E0
ENDCHAR
STARTCHAR degree
ENCODING 176
SWIDTH 480 0
DWIDTH 5 0
BBX 3 3 0 2
BITMAP
40
A0
40
ENDCHAR
STARTCHAR plusminus
ENCODING 177
SWIDTH 480 0
DWIDTH 5 0
BBX 3 5 1 0
BITMAP
40
E0
40
00
E0
ENDCHAR
STARTCHAR uni00B2
ENCODING 178
SWIDTH 480 0
DWIDTH 5 0
BBX 3 5 1 2
BITMAP
C0
20
40
80
E0
ENDCHAR
STARTCHAR uni00B3
ENCODING 179
SWIDTH 480 0
DWIDTH 5 0
BBX 3 5 1 2
BITMAP
C0
20
C0
20
C0
ENDCHAR
STARTCHAR acute
ENCODING 180
SWIDTH 480 0
DWIDTH 5 0
BBX 2 2 1 6
BITMAP
40
80
ENDCHAR
STARTCHAR uni00B5
ENCODING 181
SWIDTH 480 0
DWIDTH 5 0
BBX 4 6 0 -1
BITMAP
90
90
90
90
E0
80
ENDCHAR
STARTCHAR paragraph
ENCODING 182
SWIDTH 480 0
DWIDTH 5 0
BBX 5 6 0 0
BITMAP
78
A8
A8
68
28
28
ENDCHAR
STARTCHAR periodcentered
ENCODING 183
SWIDTH 480 0
DWIDTH 5 0
BBX 2 2 2 2
BITMAP
C0
C0
ENDCHAR
STARTCHAR cedilla
ENCODING 184
SWIDTH 480 0
DWIDTH 5 0
BBX 3 3 1 1
BITMAP
40
20
E0
ENDCHAR
STARTCHAR uni00B9
ENCODING 185
SWIDTH 480 0
DWIDTH 5 0
BBX 2 4 1 2
BITMAP
40
C0
40
40
ENDCHAR
STARTCHAR ordmasculine
ENCODING 186
SWIDTH 480 0
DWIDTH 5 0
BBX 4 4 0 4
BITMAP
60
90
90
60
ENDCHAR
STARTCHAR guillemotright
ENCODING 187
SWIDTH 480 0
DWIDTH 5 0
BBX 4 3 1 2
BITMAP
A0
50
A0
ENDCHAR
STARTCHAR onequarter
ENCODING 188
SWIDTH 480 0
DWIDTH 5 0
BBX 5 8 1 0
BITMAP
40
C0
40
50
30
50
78
10
ENDCHAR
STARTCHAR onehalf
ENCODING 189
SWIDTH 480 0
DWIDTH 5 0
BBX 5 7 1 1
BITMAP
40
C0
40
70
08
10
38
ENDCHAR
STARTCHAR threequarters
ENCODING 190
SWIDTH 480 0
DWIDTH 5 0
BBX 6 8 0 0
BITMAP
C0
20
40
28
D8
28
3C
08
ENDCHAR
STARTCHAR questiondown
ENCODING 191
SWIDTH 480 0
DWIDTH 5 0
BBX 3 6 2 0
BITMAP
40
00
40
80
A0
E0
ENDCHAR
STARTCHAR Agrave
ENCODING 192
SWIDTH 480 0
DWIDTH 5 0
BBX 4 8 1 0
BITMAP
40
20
60
90
90
F0
90
90
ENDCHAR
STARTCHAR Aacute
ENCODING 193
SWIDTH 480 0
DWIDTH 5 0
BBX 4 8 1 0
BITMAP
20
40
60
90
90
F0
90
90
ENDCHAR
STARTCHAR Acircumflex
ENCODING 194
SWIDTH 480 0
DWIDTH 5 0
BBX 4 9 1 0
BITMAP
20
50
00
60
90
90
F0
90
90
ENDCHAR
STARTCHAR Atilde
ENCODING 195
SWIDTH 480 0
DWIDTH 5 0
BBX 4 8 1 0
BITMAP
50
A0
60
90
90
F0
90
90
ENDCHAR
STARTCHAR Adieresis
ENCODING 196
SWIDTH 480 0
DWIDTH 5 0
BBX 4 8 1 0
BITMAP
90
00
60
90
90
F0
90
90
ENDCHAR
STARTCHAR Aring
ENCODING 197
SWIDTH 480 0
DWIDTH 5 0
BBX 4 8 1 0
BITMAP
60
90
60
90
90
F0
90
90
ENDCHAR
STARTCHAR AE
ENCODING 198
SWIDTH 480 0
DWIDTH 5 0
BBX 6 6 0 0
BITMAP
7C
90
98
F0
90
9C
ENDCHAR
STARTCHAR Ccedilla
ENCODING 199
SWIDTH 480 0
DWIDTH 5 0
BBX 4 8 0 -2
BITMAP
70
80
80
80
80
70
20
40
ENDCHAR
STARTCHAR Egrave
ENCODING 200
SWIDTH 480 0
DWIDTH 5 0
BBX 4 8 1 0
BITMAP
40
20
F0
80
E0
80
80
F0
ENDCHAR
STARTCHAR Eacute
ENCODING 201
SWIDTH 480 0
DWIDTH 5 0
BBX 4 8 1 0
BITMAP
20
40
F0
80
E0
80
80
F0
ENDCHAR
STARTCHAR Ecircumflex
ENCODING 202
SWIDTH 480 0
DWIDTH 5 0
BBX 4 8 1 0
BITMAP
40
A0
F0
80
E0
80
80
F0
ENDCHAR
STARTCHAR Edieresis
ENCODING 203
SWIDTH 480 0
DWIDTH 5 0
BBX 4 8 1 0
BITMAP
A0
00
F0
80
E0
80
80
F0
ENDCHAR
STARTCHAR Igrave
ENCODING 204
SWIDTH 480 0
DWIDTH 5 0
BBX 3 9 1 0
BITMAP
80
40
00
E0
40
40
40
40
E0
ENDCHAR
STARTCHAR Iacute
ENCODING 205
SWIDTH 480 0
DWIDTH 5 0
BBX 3 9 1 0
BITMAP
20
40
00
E0
40
40
40
40
E0
ENDCHAR
STARTCHAR Icircumflex
ENCODING 206
SWIDTH 480 0
DWIDTH 5 0
BBX 3 9 1 0
BITMAP
40
A0
00
E0
40
40
40
40
E0
ENDCHAR
STARTCHAR Idieresis
ENCODING 207
SWIDTH 480 0
DWIDTH 5 0
BBX 3 8 1 0
BITMAP
A0
00
E0
40
40
40
40
E0
ENDCHAR
STARTCHAR Eth
ENCODING 208
SWIDTH 480 0
DWIDTH 5 0
BBX 5 6 0 0
BITMAP
70
48
E8
48
48
70
ENDCHAR
STARTCHAR Ntilde
ENCODING 209
SWIDTH 480 0
DWIDTH 5 0
BBX 4 8 1 0
BITMAP
50
A0
00
E0
90
90
90
90
ENDCHAR
STARTCHAR Ograve
ENCODING 210
SWIDTH 480 0
DWIDTH 5 0
BBX 4 8 1 0
BITMAP
80
40
00
60
90
90
90
60
ENDCHAR
STARTCHAR Oacute
ENCODING 211
SWIDTH 480 0
DWIDTH 5 0
BBX 4 8 1 0
BITMAP
20
40
00
60
90
90
90
60
ENDCHAR
STARTCHAR Ocircumflex
ENCODING 212
SWIDTH 480 0
DWIDTH 5 0
BBX 4 8 1 0
BITMAP
40
A0
00
60
90
90
90
60
ENDCHAR
STARTCHAR Otilde
ENCODING 213
SWIDTH 480 0
DWIDTH 5 0
BBX 4 8 1 0
BITMAP
50
A0
00
60
90
90
90
60
ENDCHAR
STARTCHAR Odieresis
ENCODING 214
SWIDTH 480 0
DWIDTH 5 0
BBX 4 7 1 0
BITMAP
90
00
60
90
90
90
60
ENDCHAR
STARTCHAR multiply
ENCODING 215
SWIDTH 480 0
DWIDTH 5 0
BBX 3 3 1 2
BITMAP
A0
40
A0
ENDCHAR
STARTCHAR Oslash
ENCODING 216
SWIDTH 480 0
DWIDTH 5 0
BBX 4 8 1 -1
BITMAP
10
60
B0
B0
D0
D0
60
80
ENDCHAR
STARTCHAR Ugrave
ENCODING 217
SWIDTH 480 0
DWIDTH 5 0
BBX 4 8 1 0
BITMAP
80
40
90
90
90
90
90
70
ENDCHAR
STARTCHAR Uacute
ENCODING 218
SWIDTH 480 0
DWIDTH 5 0
BBX 4 8 1 0
BITMAP
10
20
90
90
90
90
90
70
ENDCHAR
STARTCHAR Ucircumflex
ENCODING 219
SWIDTH 480 0
DWIDTH 5 0
BBX 4 9 1 0
BITMAP
20
50
00
90
90
90
90
90
70
ENDCHAR
STARTCHAR Udieresis
ENCODING 220
SWIDTH 480 0
DWIDTH 5 0
BBX 4 8 1 0
BITMAP
50
00
90
90
90
90
90
70
ENDCHAR
STARTCHAR Yacute
ENCODING 221
SWIDTH 480 0
DWIDTH 5 0
BBX 5 8 0 0
BITMAP
10
20
88
50
20
20
20
20
ENDCHAR
STARTCHAR Thorn
ENCODING 222
SWIDTH 480 0
DWIDTH 5 0
BBX 4 7 1 -1
BITMAP
80
80
E0
90
90
E0
80
ENDCHAR
STARTCHAR germandbls
ENCODING 223
SWIDTH 480 0
DWIDTH 5 0
BBX 4 7 1 -1
BITMAP
60
90
A0
90
90
A0
80
ENDCHAR
STARTCHAR agrave
ENCODING 224
SWIDTH 480 0
DWIDTH 5 0
BBX 4 8 1 0
BITMAP
80
40
00
70
90
90
B0
50
ENDCHAR
STARTCHAR aacute
ENCODING 225
SWIDTH 480 0
DWIDTH 5 0
BBX 4 8 1 0
BITMAP
20
40
00
70
90
90
B0
50
ENDCHAR
STARTCHAR acircumflex
ENCODING 226
SWIDTH 480 0
DWIDTH 5 0
BBX 4 8 1 0
BITMAP
40
A0
00
70
90
90
B0
50
ENDCHAR
STARTCHAR atilde
ENCODING 227
SWIDTH 480 0
DWIDTH 5 0
BBX 4 8 1 0
BITMAP
50
A0
00
70
90
90
B0
50
ENDCHAR
STARTCHAR adieresis
ENCODING 228
SWIDTH 480 0
DWIDTH 5 0
BBX 4 7 1 0
BITMAP
90
00
70
90
90
B0
50
ENDCHAR
STARTCHAR aring
ENCODING 229
SWIDTH 480 0
DWIDTH 5 0
BBX 4 7 1 0
BITMAP
20
00
70
90
90
B0
50
ENDCHAR
STARTCHAR ae
ENCODING 230
SWIDTH 480 0
DWIDTH 5 0
BBX 5 5 1 0
BITMAP
70
A8
B8
A0
58
ENDCHAR
STARTCHAR ccedilla
ENCODING 231
SWIDTH 480 0
DWIDTH 5 0
BBX 4 7 1 -2
BITMAP
70
80
80
80
70
20
40
ENDCHAR
STARTCHAR egrave
ENCODING 232
SWIDTH 480 0
DWIDTH 5 0
BBX 4 8 1 0
BITMAP
80
40
00
60
90
F0
80
70
ENDCHAR
STARTCHAR eacute
ENCODING 233
SWIDTH 480 0
DWIDTH 5 0
BBX 4 8 1 0
BITMAP
20
40
00
60
90
F0
80
70
ENDCHAR
STARTCHAR ecircumflex
ENCODING 234
SWIDTH 480 0
DWIDTH 5 0
BBX 4 8 1 0
BITMAP
40
A0
00
60
90
F0
80
70
ENDCHAR
STARTCHAR edieresis
ENCODING 235
SWIDTH 480 0
DWIDTH 5 0
BBX 4 7 1 0
BITMAP
A0
00
60
90
F0
80
70
ENDCHAR
STARTCHAR igrave
ENCODING 236
SWIDTH 480 0
DWIDTH 5 0
BBX 2 8 2 0
BITMAP
80
40
00
C0
40
40
40
40
ENDCHAR
STARTCHAR iacute
ENCODING 237
SWIDTH 480 0
DWIDTH 5 0
BBX 3 8 2 0
BITMAP
20
40
00
C0
40
40
40
40
ENDCHAR
STARTCHAR icircumflex
ENCODING 238
SWIDTH 480 0
DWIDTH 5 0
BBX 3 8 2 0
BITMAP
40
A0
00
C0
40
40
40
40
ENDCHAR
STARTCHAR idieresis
ENCODING 239
SWIDTH 480 0
DWIDTH 5 0
BBX 3 7 2 0
BITMAP
A0
00
C0
40
40
40
40
ENDCHAR
STARTCHAR eth
ENCODING 240
SWIDTH 480 0
DWIDTH 5 0
BBX 4 8 1 0
BITMAP
A0
60
90
70
90
90
90
60
ENDCHAR
STARTCHAR ntilde
ENCODING 241
SWIDTH 480 0
DWIDTH 5 0
BBX 4 8 1 0
BITMAP
50
A0
00
E0
90
90
90
90
ENDCHAR
STARTCHAR ograve
ENCODING 242
SWIDTH 480 0
DWIDTH 5 0
BBX 4 8 1 0
BITMAP
80
40
00
60
90
90
90
60
ENDCHAR
STARTCHAR oacute
ENCODING 243
SWIDTH 480 0
DWIDTH 5 0
BBX 4 8 1 0
BITMAP
10
20
00
60
90
90
90
60
ENDCHAR
STARTCHAR ocircumflex
ENCODING 244
SWIDTH 480 0
DWIDTH 5 0
BBX 4 8 1 0
BITMAP
40
A0
00
60
90
90
90
60
ENDCHAR
STARTCHAR otilde
ENCODING 245
SWIDTH 480 0
DWIDTH 5 0
BBX 4 8 1 0
BITMAP
50
A0
00
60
90
90
90
60
ENDCHAR
STARTCHAR odieresis
ENCODING 246
SWIDTH 480 0
DWIDTH 5 0
BBX 4 7 1 0
BITMAP
90
00
60
90
90
90
60
ENDCHAR
STARTCHAR divide
ENCODING 247
SWIDTH 480 0
DWIDTH 5 0
BBX 5 5 0 1
BITMAP
20
00
F8
00
20
ENDCHAR
STARTCHAR oslash
ENCODING 248
SWIDTH 480 0
DWIDTH 5 0
BBX 4 7 1 -1
BITMAP
10
60
B0
90
D0
60
80
ENDCHAR
STARTCHAR ugrave
ENCODING 249
SWIDTH 480 0
DWIDTH 5 0
BBX 4 8 1 0
BITMAP
80
40
00
90
90
90
90
70
ENDCHAR
STARTCHAR uacute
ENCODING 250
SWIDTH 480 0
DWIDTH 5 0
BBX 4 8 1 0
BITMAP
20
40
00
90
90
90
90
70
ENDCHAR
STARTCHAR ucircumflex
ENCODING 251
SWIDTH 480 0
DWIDTH 5 0
BBX 4 8 1 0
BITMAP
40
A0
00
90
90
90
90
70
ENDCHAR
STARTCHAR udieresis
ENCODING 252
SWIDTH 480 0
DWIDTH 5 0
BBX 4 7 1 0
BITMAP
A0
00
90
90
90
90
70
ENDCHAR
STARTCHAR yacute
ENCODING 253
SWIDTH 480 0
DWIDTH 5 0
BBX 4 10 1 -2
BITMAP
20
40
00
90
90
90
90
70
10
60
ENDCHAR
STARTCHAR thorn
ENCODING 254
SWIDTH 480 0
DWIDTH 5 0
BBX 4 9 1 -2
BITMAP
80
80
E0
90
90
90
E0
80
80
ENDCHAR
STARTCHAR ydieresis
ENCODING 255
SWIDTH 480 0
DWIDTH 5 0
BBX 4 9 1 -2
BITMAP
50
00
90
90
90
90
70
10
60
ENDCHAR
STARTCHAR Amacron
ENCODING 256
SWIDTH 480 0
DWIDTH 5 0
BBX 4 8 1 0
BITMAP
F0
00
60
90
90
F0
90
90
ENDCHAR
STARTCHAR amacron
ENCODING 257
SWIDTH 480 0
DWIDTH 5 0
BBX 4 7 1 0
BITMAP
F0
00
70
90
90
B0
50
ENDCHAR
STARTCHAR Abreve
ENCODING 258
SWIDTH 480 0
DWIDTH 5 0
BBX 4 9 1 0
BITMAP
90
60
00
60
90
90
F0
90
90
ENDCHAR
STARTCHAR abreve
ENCODING 259
SWIDTH 480 0
DWIDTH 5 0
BBX 4 8 1 0
BITMAP
90
60
00
70
90
90
B0
50
ENDCHAR
STARTCHAR Aogonek
ENCODING 260
SWIDTH 480 0
DWIDTH 5 0
BBX 5 7 1 -1
BITMAP
60
90
90
F0
90
90
08
ENDCHAR
STARTCHAR aogonek
ENCODING 261
SWIDTH 480 0
DWIDTH 5 0
BBX 5 6 1 -1
BITMAP
70
90
90
B0
50
08
ENDCHAR
STARTCHAR Cacute
ENCODING 262
SWIDTH 480 0
DWIDTH 5 0
BBX 4 9 1 0
BITMAP
20
40
00
70
80
80
80
80
70
ENDCHAR
STARTCHAR cacute
ENCODING 263
SWIDTH 480 0
DWIDTH 5 0
BBX 4 8 1 0
BITMAP
20
40
00
70
80
80
80
70
ENDCHAR
STARTCHAR Ccircumflex
ENCODING 264
SWIDTH 480 0
DWIDTH 5 0
BBX 4 9 1 0
BITMAP
20
50
00
70
80
80
80
80
70
ENDCHAR
STARTCHAR ccircumflex
ENCODING 265
SWIDTH 480 0
DWIDTH 5 0
BBX 4 8 1 0
BITMAP
20
50
00
70
80
80
80
70
ENDCHAR
STARTCHAR Cdotaccent
ENCODING 266
SWIDTH 480 0
DWIDTH 5 0
BBX 4 8 1 0
BITMAP
20
00
70
80
80
80
80
70
ENDCHAR
STARTCHAR cdotaccent
ENCODING 267
SWIDTH 480 0
DWIDTH 5 0
BBX 4 7 1 0
BITMAP
20
00
70
80
80
80
70
ENDCHAR
STARTCHAR Ccaron
ENCODING 268
SWIDTH 480 0
DWIDTH 5 0
BBX 4 9 1 0
BITMAP
50
20
00
70
80
80
80
80
70
ENDCHAR
STARTCHAR ccaron
ENCODING 269
SWIDTH 480 0
DWIDTH 5 0
BBX 4 8 1 0
BITMAP
50
20
00
70
80
80
80
70
ENDCHAR
STARTCHAR Dcaron
ENCODING 270
SWIDTH 480 0
DWIDTH 5 0
BBX 4 9 1 0
BITMAP
A0
40
00
E0
90
90
90
90
E0
ENDCHAR
STARTCHAR dcaron
ENCODING 271
SWIDTH 480 0
DWIDTH 5 0
BBX 6 8 1 0
BITMAP
04
14
18
70
90
90
B0
50
ENDCHAR
STARTCHAR Dcroat
ENCODING 272
SWIDTH 480 0
DWIDTH 5 0
BBX 5 6 0 0
BITMAP
70
48
E8
48
48
70
ENDCHAR
STARTCHAR dcroat
ENCODING 273
SWIDTH 480 0
DWIDTH 5 0
BBX 5 7 1 0
BITMAP
38
10
70
90
90
B0
50
ENDCHAR
STARTCHAR Emacron
ENCODING 274
SWIDTH 480 0
DWIDTH 5 0
BBX 4 8 1 0
BITMAP
60
00
F0
80
E0
80
80
F0
ENDCHAR
STARTCHAR emacron
ENCODING 275
SWIDTH 480 0
DWIDTH 5 0
BBX 4 7 1 0
BITMAP
F0
00
60
90
F0
80
70
ENDCHAR
STARTCHAR Ebreve
ENCODING 276
SWIDTH 480 0
DWIDTH 5 0
BBX 4 9 1 0
BITMAP
90
60
00
F0
80
E0
80
80
F0
ENDCHAR
STARTCHAR ebreve
ENCODING 277
SWIDTH 480 0
DWIDTH 5 0
BBX 4 8 1 0
BITMAP
90
60
00
60
90
F0
80
70
ENDCHAR
STARTCHAR Edotaccent
ENCODING 278
SWIDTH 480 0
DWIDTH 5 0
BBX 4 8 1 0
BITMAP
40
00
F0
80
E0
80
80
F0
ENDCHAR
STARTCHAR edotaccent
ENCODING 279
SWIDTH 480 0
DWIDTH 5 0
BBX 4 7 1 0
BITMAP
40
00
60
90
F0
80
70
ENDCHAR
STARTCHAR Eogonek
ENCODING 280
SWIDTH 480 0
DWIDTH 5 0
BBX 5 7 1 -1
BITMAP
F0
80
E0
80
80
F0
08
ENDCHAR
STARTCHAR eogonek
ENCODING 281
SWIDTH 480 0
DWIDTH 5 0
BBX 4 6 1 -1
BITMAP
60
90
F0
80
60
10
ENDCHAR
STARTCHAR Ecaron
ENCODING 282
SWIDTH 480 0
DWIDTH 5 0
BBX 4 9 1 0
BITMAP
A0
40
00
F0
80
E0
80
80
F0
ENDCHAR
STARTCHAR ecaron
ENCODING 283
SWIDTH 480 0
DWIDTH 5 0
BBX 4 8 1 0
BITMAP
A0
40
00
60
90
F0
80
70
ENDCHAR
STARTCHAR Gcircumflex
ENCODING 284
SWIDTH 480 0
DWIDTH 5 0
BBX 4 9 1 0
BITMAP
20
50
00
70
80
80
B0
90
70
ENDCHAR
STARTCHAR gcircumflex
ENCODING 285
SWIDTH 480 0
DWIDTH 5 0
BBX 4 10 1 -2
BITMAP
20
50
00
70
90
90
B0
50
10
60
ENDCHAR
STARTCHAR Gbreve
ENCODING 286
SWIDTH 480 0
DWIDTH 5 0
BBX 4 9 1 0
BITMAP
90
60
00
70
80
80
B0
90
70
ENDCHAR
STARTCHAR gbreve
ENCODING 287
SWIDTH 480 0
DWIDTH 5 0
BBX 4 10 1 -2
BITMAP
90
60
00
70
90
90
B0
50
10
60
ENDCHAR
STARTCHAR Gdotaccent
ENCODING 288
SWIDTH 480 0
DWIDTH 5 0
BBX 4 8 1 0
BITMAP
20
00
70
80
80
B0
90
70
ENDCHAR
STARTCHAR gdotaccent
ENCODING 289
SWIDTH 480 0
DWIDTH 5 0
BBX 4 9 1 -2
BITMAP
20
00
70
90
90
B0
50
10
60
ENDCHAR
STARTCHAR Gcommaaccent
ENCODING 290
SWIDTH 480 0
DWIDTH 5 0
BBX 4 8 1 -2
BITMAP
70
80
80
B0
90
70
20
40
ENDCHAR
STARTCHAR gcommaaccent
ENCODING 291
SWIDTH 480 0
DWIDTH 5 0
BBX 4 10 1 -2
BITMAP
20
40
00
70
90
90
B0
50
10
60
ENDCHAR
STARTCHAR Hcircumflex
ENCODING 292
SWIDTH 480 0
DWIDTH 5 0
BBX 4 9 1 0
BITMAP
20
50
00
90
90
F0
90
90
90
ENDCHAR
STARTCHAR hcircumflex
ENCODING 293
SWIDTH 480 0
DWIDTH 5 0
BBX 4 9 1 0
BITMAP
20
50
80
80
E0
90
90
90
90
ENDCHAR
STARTCHAR Hbar
ENCODING 294
SWIDTH 480 0
DWIDTH 5 0
BBX 6 6 0 0
BITMAP
FC
48
78
48
48
48
ENDCHAR
STARTCHAR hbar
ENCODING 295
SWIDTH 480 0
DWIDTH 5 0
BBX 5 7 0 0
BITMAP
F0
40
70
48
48
48
48
ENDCHAR
STARTCHAR Itilde
ENCODING 296
SWIDTH 480 0
DWIDTH 5 0
BBX 4 9 0 0
BITMAP
50
A0
00
70
20
20
20
20
70
ENDCHAR
STARTCHAR itilde
ENCODING 297
SWIDTH 480 0
DWIDTH 5 0
BBX 4 8 1 0
BITMAP
50
A0
00
60
20
20
20
20
ENDCHAR
STARTCHAR Imacron
ENCODING 298
SWIDTH 480 0
DWIDTH 5 0
BBX 3 8 1 0
BITMAP
E0
00
E0
40
40
40
40
E0
ENDCHAR
STARTCHAR imacron
ENCODING 299
SWIDTH 480 0
DWIDTH 5 0
BBX 3 7 2 0
BITMAP
E0
00
C0
40
40
40
40
ENDCHAR
STARTCHAR Ibreve
ENCODING 300
SWIDTH 480 0
DWIDTH 5 0
BBX 3 9 1 0
BITMAP
A0
40
00
E0
40
40
40
40
E0
ENDCHAR
STARTCHAR ibreve
ENCODING 301
SWIDTH 480 0
DWIDTH 5 0
BBX 3 8 2 0
BITMAP
A0
40
00
C0
40
40
40
40
ENDCHAR
STARTCHAR Iogonek
ENCODING 302
SWIDTH 480 0
DWIDTH 5 0
BBX 3 8 1 -2
BITMAP
E0
40
40
40
40
E0
80
40
ENDCHAR
STARTCHAR iogonek
ENCODING 303
SWIDTH 480 0
DWIDTH 5 0
BBX 2 9 2 -2
BITMAP
40
00
C0
40
40
40
C0
80
40
ENDCHAR
STARTCHAR Idotaccent
ENCODING 304
SWIDTH 480 0
DWIDTH 5 0
BBX 3 8 1 0
BITMAP
40
00
E0
40
40
40
40
E0
ENDCHAR
STARTCHAR dotlessi
ENCODING 305
SWIDTH 480 0
DWIDTH 5 0
BBX 2 5 2 0
BITMAP
C0
40
40
40
40
ENDCHAR
STARTCHAR IJ
ENCODING 306
SWIDTH 480 0
DWIDTH 5 0
BBX 6 6 1 0
BITMAP
FC
44
44
44
54
E8
ENDCHAR
STARTCHAR ij
ENCODING 307
SWIDTH 480 0
DWIDTH 5 0
BBX 5 8 1 -1
BITMAP
48
00
D8
48
48
48
48
30
ENDCHAR
STARTCHAR Jcircumflex
ENCODING 308
SWIDTH 480 0
DWIDTH 5 0
BBX 4 9 1 0
BITMAP
20
50
00
70
10
10
10
90
60
ENDCHAR
STARTCHAR jcircumflex
ENCODING 309
SWIDTH 480 0
DWIDTH 5 0
BBX 4 10 1 -2
BITMAP
20
50
00
60
20
20
20
20
20
C0
ENDCHAR
STARTCHAR Kcommaaccent
ENCODING 310
SWIDTH 480 0
DWIDTH 5 0
BBX 4 8 1 -2
BITMAP
90
A0
C0
A0
90
90
40
80
ENDCHAR
STARTCHAR kcommaaccent
ENCODING 311
SWIDTH 480 0
DWIDTH 5 0
BBX 4 9 1 -2
BITMAP
80
80
90
A0
E0
90
90
40
80
ENDCHAR
STARTCHAR kgreenlandic
ENCODING 312
SWIDTH 480 0
DWIDTH 5 0
BBX 4 5 1 0
BITMAP
90
A0
E0
90
90
ENDCHAR
STARTCHAR Lacute
ENCODING 313
SWIDTH 480 0
DWIDTH 5 0
BBX 4 8 1 0
BITMAP
10
20
80
80
80
80
80
F0
ENDCHAR
STARTCHAR lacute
ENCODING 314
SWIDTH 480 0
DWIDTH 5 0
BBX 4 9 2 0
BITMAP
10
20
C0
40
40
40
40
40
40
ENDCHAR
STARTCHAR Lcommaaccent
ENCODING 315
SWIDTH 480 0
DWIDTH 5 0
BBX 4 8 1 -2
BITMAP
80
80
80
80
80
F0
20
40
ENDCHAR
STARTCHAR lcommaaccent
ENCODING 316
SWIDTH 480 0
DWIDTH 5 0
BBX 3 9 1 -2
BITMAP
60
20
20
20
20
20
20
40
80
ENDCHAR
STARTCHAR Lcaron
ENCODING 317
SWIDTH 480 0
DWIDTH 5 0
BBX 4 7 1 0
BITMAP
30
90
80
80
80
80
F0
ENDCHAR
STARTCHAR lcaron
ENCODING 318
SWIDTH 480 0
DWIDTH 5 0
BBX 4 10 2 -1
BITMAP
30
10
C0
40
40
40
40
40
40
20
ENDCHAR
STARTCHAR Ldot
ENCODING 319
SWIDTH 480 0
DWIDTH 5 0
BBX 4 6 1 0
BITMAP
80
80
80
A0
80
F0
ENDCHAR
STARTCHAR ldot
ENCODING 320
SWIDTH 480 0
DWIDTH 5 0
BBX 4 7 2 0
BITMAP
C0
40
40
40
50
40
40
ENDCHAR
STARTCHAR Lslash
ENCODING 321
SWIDTH 480 0
DWIDTH 5 0
BBX 4 6 1 0
BITMAP
80
A0
C0
80
80
F0
ENDCHAR
STARTCHAR lslash
ENCODING 322
SWIDTH 480 0
DWIDTH 5 0
BBX 3 7 2 0
BITMAP
C0
40
40
60
C0
40
40
ENDCHAR
STARTCHAR Nacute
ENCODING 323
SWIDTH 480 0
DWIDTH 5 0
BBX 4 9 1 0
BITMAP
20
40
00
90
D0
D0
B0
B0
90
ENDCHAR
STARTCHAR nacute
ENCODING 324
SWIDTH 480 0
DWIDTH 5 0
BBX 4 8 1 0
BITMAP
20
40
00
E0
90
90
90
90
ENDCHAR
STARTCHAR Ncommaaccent
ENCODING 325
SWIDTH 480 0
DWIDTH 5 0
BBX 4 8 1 -2
BITMAP
90
D0
D0
B0
B0
D0
40
80
ENDCHAR
STARTCHAR ncommaaccent
ENCODING 326
SWIDTH 480 0
DWIDTH 5 0
BBX 4 10 1 -2
BITMAP
20
40
00
E0
90
90
90
D0
40
80
ENDCHAR
STARTCHAR Ncaron
ENCODING 327
SWIDTH 480 0
DWIDTH 5 0
BBX 4 8 1 0
BITMAP
50
20
90
D0
D0
B0
B0
90
ENDCHAR
STARTCHAR ncaron
ENCODING 328
SWIDTH 480 0
DWIDTH 5 0
BBX 4 8 1 0
BITMAP
50
20
00
E0
90
90
90
90
ENDCHAR
STARTCHAR napostrophe
ENCODING 329
SWIDTH 480 0
DWIDTH 5 0
BBX 4 8 1 0
BITMAP
80
80
00
E0
90
90
90
90
ENDCHAR
STARTCHAR Eng
ENCODING 330
SWIDTH 480 0
DWIDTH 5 0
BBX 4 8 1 -2
BITMAP
90
D0
D0
B0
B0
90
10
60
ENDCHAR
STARTCHAR eng
ENCODING 331
SWIDTH 480 0
DWIDTH 5 0
BBX 4 10 1 -2
BITMAP
20
40
00
E0
90
90
90
90
10
60
ENDCHAR
STARTCHAR Omacron
ENCODING 332
SWIDTH 480 0
DWIDTH 5 0
BBX 4 8 1 0
BITMAP
F0
00
60
90
90
90
90
60
ENDCHAR
STARTCHAR omacron
ENCODING 333
SWIDTH 480 0
DWIDTH 5 0
BBX 4 7 1 0
BITMAP
F0
00
60
90
90
90
60
ENDCHAR
STARTCHAR Obreve
ENCODING 334
SWIDTH 480 0
DWIDTH 5 0
BBX 4 9 1 0
BITMAP
90
60
00
60
90
90
90
90
60
ENDCHAR
STARTCHAR obreve
ENCODING 335
SWIDTH 480 0
DWIDTH 5 0
BBX 4 8 1 0
BITMAP
90
60
00
60
90
90
90
60
ENDCHAR
STARTCHAR Ohungarumlaut
ENCODING 336
SWIDTH 480 0
DWIDTH 5 0
BBX 4 9 1 0
BITMAP
50
A0
00
60
90
90
90
90
60
ENDCHAR
STARTCHAR ohungarumlaut
ENCODING 337
SWIDTH 480 0
DWIDTH 5 0
BBX 4 8 1 0
BITMAP
50
A0
00
60
90
90
90
60
ENDCHAR
STARTCHAR OE
ENCODING 338
SWIDTH 480 0
DWIDTH 5 0
BBX 6 6 0 0
BITMAP
7C
90
98
90
90
7C
ENDCHAR
STARTCHAR oe
ENCODING 339
SWIDTH 480 0
DWIDTH 5 0
BBX 5 5 1 0
BITMAP
70
A8
B8
A0
78
ENDCHAR
STARTCHAR Racute
ENCODING 340
SWIDTH 480 0
DWIDTH 5 0
BBX 4 8 1 0
BITMAP
20
40
E0
90
90
E0
90
90
ENDCHAR
STARTCHAR racute
ENCODING 341
SWIDTH 480 0
DWIDTH 5 0
BBX 4 8 1 0
BITMAP
20
40
00
B0
C0
80
80
80
ENDCHAR
STARTCHAR Rcommaaccent
ENCODING 342
SWIDTH 480 0
DWIDTH 5 0
BBX 4 8 1 -2
BITMAP
E0
90
90
E0
90
90
40
80
ENDCHAR
STARTCHAR rcommaaccent
ENCODING 343
SWIDTH 480 0
DWIDTH 5 0
BBX 4 7 1 -2
BITMAP
B0
C0
80
80
80
40
80
ENDCHAR
STARTCHAR Rcaron
ENCODING 344
SWIDTH 480 0
DWIDTH 5 0
BBX 4 8 1 0
BITMAP
A0
40
E0
90
90
E0
90
90
ENDCHAR
STARTCHAR rcaron
ENCODING 345
SWIDTH 480 0
DWIDTH 5 0
BBX 4 8 1 0
BITMAP
A0
40
00
B0
C0
80
80
80
ENDCHAR
STARTCHAR Sacute
ENCODING 346
SWIDTH 480 0
DWIDTH 5 0
BBX 4 9 1 0
BITMAP
20
40
00
70
80
60
10
10
E0
ENDCHAR
STARTCHAR sacute
ENCODING 347
SWIDTH 480 0
DWIDTH 5 0
BBX 4 8 1 0
BITMAP
20
40
00
70
80
60
10
E0
ENDCHAR
STARTCHAR Scircumflex
ENCODING 348
SWIDTH 480 0
DWIDTH 5 0
BBX 4 9 1 0
BITMAP
20
50
00
70
80
60
10
10
E0
ENDCHAR
STARTCHAR scircumflex
ENCODING 349
SWIDTH 480 0
DWIDTH 5 0
BBX 4 8 1 0
BITMAP
20
50
00
70
80
60
10
E0
ENDCHAR
STARTCHAR Scedilla
ENCODING 350
SWIDTH 480 0
DWIDTH 5 0
BBX 4 8 1 -2
BITMAP
70
80
60
10
10
E0
20
20
ENDCHAR
STARTCHAR scedilla
ENCODING 351
SWIDTH 480 0
DWIDTH 5 0
BBX 4 7 1 -2
BITMAP
70
80
60
10
E0
20
20
ENDCHAR
STARTCHAR Scaron
ENCODING 352
SWIDTH 480 0
DWIDTH 5 0
BBX 4 9 1 0
BITMAP
50
20
00
70
80
60
10
10
E0
ENDCHAR
STARTCHAR scaron
ENCODING 353
SWIDTH 480 0
DWIDTH 5 0
BBX 4 8 1 0
BITMAP
50
20
00
70
80
60
10
E0
ENDCHAR
STARTCHAR Tcommaaccent
ENCODING 354
SWIDTH 480 0
DWIDTH 5 0
BBX 5 7 0 -1
BITMAP
F8
20
20
20
20
20
40
ENDCHAR
STARTCHAR tcommaaccent
ENCODING 355
SWIDTH 480 0
DWIDTH 5 0
BBX 3 7 1 -1
BITMAP
40
E0
40
40
40
20
40
ENDCHAR
STARTCHAR Tcaron
ENCODING 356
SWIDTH 480 0
DWIDTH 5 0
BBX 5 9 0 0
BITMAP
50
20
00
F8
20
20
20
20
20
ENDCHAR
STARTCHAR tcaron
ENCODING 357
SWIDTH 480 0
DWIDTH 5 0
BBX 4 8 1 0
BITMAP
30
10
40
E0
40
40
40
20
ENDCHAR
STARTCHAR Tbar
ENCODING 358
SWIDTH 480 0
DWIDTH 5 0
BBX 5 6 0 0
BITMAP
F8
20
20
70
20
20
ENDCHAR
STARTCHAR tbar
ENCODING 359
SWIDTH 480 0
DWIDTH 5 0
BBX 3 6 1 0
BITMAP
40
E0
40
E0
40
20
ENDCHAR
STARTCHAR Utilde
ENCODING 360
SWIDTH 480 0
DWIDTH 5 0
BBX 4 9 1 0
BITMAP
50
A0
00
90
90
90
90
90
70
ENDCHAR
STARTCHAR utilde
ENCODING 361
SWIDTH 480 0
DWIDTH 5 0
BBX 4 8 1 0
BITMAP
50
A0
00
90
90
90
90
70
ENDCHAR
STARTCHAR Umacron
ENCODING 362
SWIDTH 480 0
DWIDTH 5 0
BBX 4 8 1 0
BITMAP
F0
00
90
90
90
90
90
70
ENDCHAR
STARTCHAR umacron
ENCODING 363
SWIDTH 480 0
DWIDTH 5 0
BBX 4 7 1 0
BITMAP
F0
00
90
90
90
90
70
ENDCHAR
STARTCHAR Ubreve
ENCODING 364
SWIDTH 480 0
DWIDTH 5 0
BBX 4 9 1 0
BITMAP
90
60
00
90
90
90
90
90
70
ENDCHAR
STARTCHAR ubreve
ENCODING 365
SWIDTH 480 0
DWIDTH 5 0
BBX 4 8 1 0
BITMAP
90
60
00
90
90
90
90
70
ENDCHAR
STARTCHAR Uring
ENCODING 366
SWIDTH 480 0
DWIDTH 5 0
BBX 4 9 1 0
BITMAP
20
50
20
90
90
90
90
90
70
ENDCHAR
STARTCHAR uring
ENCODING 367
SWIDTH 480 0
DWIDTH 5 0
BBX 4 8 1 0
BITMAP
20
50
20
90
90
90
90
70
ENDCHAR
STARTCHAR Uhungarumlaut
ENCODING 368
SWIDTH 480 0
DWIDTH 5 0
BBX 5 9 1 0
BITMAP
48
90
00
90
90
90
90
90
70
ENDCHAR
STARTCHAR uhungarumlaut
ENCODING 369
SWIDTH 480 0
DWIDTH 5 0
BBX 5 8 1 0
BITMAP
48
90
00
90
90
90
90
70
ENDCHAR
STARTCHAR Uogonek
ENCODING 370
SWIDTH 480 0
DWIDTH 5 0
BBX 4 8 1 -2
BITMAP
90
90
90
90
90
70
40
20
ENDCHAR
STARTCHAR uogonek
ENCODING 371
SWIDTH 480 0
DWIDTH 5 0
BBX 4 7 1 -2
BITMAP
90
90
90
90
70
40
20
ENDCHAR
STARTCHAR Wcircumflex
ENCODING 372
SWIDTH 480 0
DWIDTH 5 0
BBX 4 9 1 0
BITMAP
20
50
00
90
90
90
90
F0
90
ENDCHAR
STARTCHAR wcircumflex
ENCODING 373
SWIDTH 480 0
DWIDTH 5 0
BBX 4 8 1 0
BITMAP
20
50
00
90
90
90
F0
90
ENDCHAR
STARTCHAR Ycircumflex
ENCODING 374
SWIDTH 480 0
DWIDTH 5 0
BBX 5 9 0 0
BITMAP
20
50
00
88
88
50
20
20
20
ENDCHAR
STARTCHAR ycircumflex
ENCODING 375
SWIDTH 480 0
DWIDTH 5 0
BBX 4 10 1 -2
BITMAP
20
50
00
90
90
90
90
70
10
60
ENDCHAR
STARTCHAR Ydieresis
ENCODING 376
SWIDTH 480 0
DWIDTH 5 0
BBX 5 8 0 0
BITMAP
50
00
88
88
50
20
20
20
ENDCHAR
STARTCHAR Zacute
ENCODING 377
SWIDTH 480 0
DWIDTH 5 0
BBX 4 9 1 0
BITMAP
20
40
00
F0
10
20
40
80
F0
ENDCHAR
STARTCHAR zacute
ENCODING 378
SWIDTH 480 0
DWIDTH 5 0
BBX 4 8 1 0
BITMAP
20
40
00
F0
20
40
80
F0
ENDCHAR
STARTCHAR Zdotaccent
ENCODING 379
SWIDTH 480 0
DWIDTH 5 0
BBX 4 8 1 0
BITMAP
20
00
F0
10
20
40
80
F0
ENDCHAR
STARTCHAR zdotaccent
ENCODING 380
SWIDTH 480 0
DWIDTH 5 0
BBX 4 7 1 0
BITMAP
20
00
F0
20
40
80
F0
ENDCHAR
STARTCHAR Zcaron
ENCODING 381
SWIDTH 480 0
DWIDTH 5 0
BBX 4 9 1 0
BITMAP
50
20
00
F0
10
20
40
80
F0
ENDCHAR
STARTCHAR zcaron
ENCODING 382
SWIDTH 480 0
DWIDTH 5 0
BBX 4 8 1 0
BITMAP
50
20
00
F0
20
40
80
F0
ENDCHAR
STARTCHAR longs
ENCODING 383
SWIDTH 480 0
DWIDTH 5 0
BBX 4 7 1 0
BITMAP
30
40
C0
40
40
40
40
ENDCHAR
STARTCHAR uni0180
ENCODING 384
SWIDTH 480 0
DWIDTH 5 0
BBX 5 7 0 0
BITMAP
E0
40
70
48
48
48
70
ENDCHAR
STARTCHAR uni0181
ENCODING 385
SWIDTH 480 0
DWIDTH 5 0
BBX 5 6 0 0
BITMAP
F0
48
70
48
48
70
ENDCHAR
STARTCHAR uni0182
ENCODING 386
SWIDTH 480 0
DWIDTH 5 0
BBX 5 8 1 0
BITMAP
E0
A0
80
F0
88
88
88
F0
ENDCHAR
STARTCHAR uni0183
ENCODING 387
SWIDTH 480 0
DWIDTH 5 0
BBX 4 8 1 0
BITMAP
E0
A0
80
E0
90
90
90
E0
ENDCHAR
STARTCHAR uni0184
ENCODING 388
SWIDTH 480 0
DWIDTH 5 0
BBX 6 7 0 0
BITMAP
40
C0
78
44
44
44
78
ENDCHAR
STARTCHAR uni0185
ENCODING 389
SWIDTH 480 0
DWIDTH 5 0
BBX 5 7 0 0
BITMAP
40
C0
70
48
48
48
70
ENDCHAR
STARTCHAR uni0186
ENCODING 390
SWIDTH 480 0
DWIDTH 5 0
BBX 4 6 1 0
BITMAP
E0
10
10
10
10
E0
ENDCHAR
STARTCHAR uni0187
ENCODING 391
SWIDTH 480 0
DWIDTH 5 0
BBX 5 7 1 0
BITMAP
08
70
80
80
80
80
70
ENDCHAR
STARTCHAR uni0188
ENCODING 392
SWIDTH 480 0
DWIDTH 5 0
BBX 4 5 1 0
BITMAP
70
80
80
80
70
ENDCHAR
STARTCHAR uni0189
ENCODING 393
SWIDTH 480 0
DWIDTH 5 0
BBX 5 6 0 0
BITMAP
70
48
E8
48
48
70
ENDCHAR
STARTCHAR uni018A
ENCODING 394
SWIDTH 480 0
DWIDTH 5 0
BBX 6 6 -1 0
BITMAP
78
A4
24
24
24
38
ENDCHAR
STARTCHAR uni018B
ENCODING 395
SWIDTH 480 0
DWIDTH 5 0
BBX 5 8 1 0
BITMAP
38
28
08
78
88
88
98
68
ENDCHAR
STARTCHAR uni018C
ENCODING 396
SWIDTH 480 0
DWIDTH 5 0
BBX 4 8 1 0
BITMAP
70
50
10
70
90
90
B0
50
ENDCHAR
STARTCHAR uni018E
ENCODING 398
SWIDTH 480 0
DWIDTH 5 0
BBX 5 6 0 0
BITMAP
78
88
38
08
08
78
ENDCHAR
STARTCHAR uni018F
ENCODING 399
SWIDTH 480 0
DWIDTH 5 0
BBX 4 5 1 0
BITMAP
E0
10
F0
90
60
ENDCHAR
STARTCHAR uni0190
ENCODING 400
SWIDTH 480 0
DWIDTH 5 0
BBX 4 6 1 0
BITMAP
60
90
40
80
90
60
ENDCHAR
STARTCHAR florin
ENCODING 402
SWIDTH 480 0
DWIDTH 5 0
BBX 4 8 1 -1
BITMAP
30
40
60
40
40
40
40
80
ENDCHAR
STARTCHAR uni0193
ENCODING 403
SWIDTH 480 0
DWIDTH 5 0
BBX 7 6 1 0
BITMAP
76
8A
80
B0
90
70
ENDCHAR
STARTCHAR uni0197
ENCODING 407
SWIDTH 480 0
DWIDTH 5 0
BBX 3 8 1 0
BITMAP
E0
00
E0
40
40
40
40
E0
ENDCHAR
STARTCHAR uni019A
ENCODING 410
SWIDTH 480 0
DWIDTH 5 0
BBX 3 7 1 0
BITMAP
C0
40
40
E0
40
40
40
ENDCHAR
STARTCHAR uni019E
ENCODING 414
SWIDTH 480 0
DWIDTH 5 0
BBX 4 6 1 -1
BITMAP
E0
90
90
90
90
10
ENDCHAR
STARTCHAR uni019F
ENCODING 415
SWIDTH 480 0
DWIDTH 5 0
BBX 4 5 0 0
BITMAP
60
90
F0
90
60
ENDCHAR
STARTCHAR Ohorn
ENCODING 416
SWIDTH 480 0
DWIDTH 5 0
BBX 6 8 1 0
BITMAP
04
04
68
90
90
90
90
60
ENDCHAR
STARTCHAR ohorn
ENCODING 417
SWIDTH 480 0
DWIDTH 5 0
BBX 6 8 1 0
BITMAP
04
04
08
60
90
90
90
60
ENDCHAR
STARTCHAR uni01A2
ENCODING 418
SWIDTH 480 0
DWIDTH 5 0
BBX 6 7 1 0
BITMAP
08
64
94
94
94
94
64
ENDCHAR
STARTCHAR uni01A3
ENCODING 419
SWIDTH 480 0
DWIDTH 5 0
BBX 6 6 1 0
BITMAP
08
64
94
94
94
64
ENDCHAR
STARTCHAR uni01A4
ENCODING 420
SWIDTH 480 0
DWIDTH 5 0
BBX 6 6 -1 0
BITMAP
F8
A4
24
38
20
20
ENDCHAR
STARTCHAR uni01A5
ENCODING 421
SWIDTH 480 0
DWIDTH 5 0
BBX 6 9 1 -2
BITMAP
0C
14
E0
90
90
90
E0
80
80
ENDCHAR
STARTCHAR uni01A7
ENCODING 423
SWIDTH 480 0
DWIDTH 5 0
BBX 4 6 1 0
BITMAP
E0
10
60
80
80
70
ENDCHAR
STARTCHAR uni01A8
ENCODING 424
SWIDTH 480 0
DWIDTH 5 0
BBX 4 5 1 0
BITMAP
E0
10
60
80
70
ENDCHAR
STARTCHAR uni01A9
ENCODING 425
SWIDTH 480 0
DWIDTH 5 0
BBX 5 6 0 0
BITMAP
F8
48
20
40
88
F8
ENDCHAR
STARTCHAR uni01AB
ENCODING 427
SWIDTH 480 0
DWIDTH 5 0
BBX 3 7 1 -1
BITMAP
40
E0
40
40
40
20
40
ENDCHAR
STARTCHAR uni01AC
ENCODING 428
SWIDTH 480 0
DWIDTH 5 0
BBX 5 6 0 0
BITMAP
F8
28
20
20
20
20
ENDCHAR
STARTCHAR uni01AE
ENCODING 430
SWIDTH 480 0
DWIDTH 5 0
BBX 5 6 0 0
BITMAP
F8
A8
20
20
20
20
ENDCHAR
STARTCHAR uni0250
ENCODING 592
SWIDTH 480 0
DWIDTH 5 0
BBX 4 5 1 0
BITMAP
A0
D0
90
90
E0
ENDCHAR
STARTCHAR uni0251
ENCODING 593
SWIDTH 480 0
DWIDTH 5 0
BBX 4 5 1 0
BITMAP
50
B0
90
B0
50
ENDCHAR
STARTCHAR uni0252
ENCODING 594
SWIDTH 480 0
DWIDTH 5 0
BBX 4 5 1 0
BITMAP
A0
D0
90
D0
A0
ENDCHAR
STARTCHAR uni0253
ENCODING 595
SWIDTH 480 0
DWIDTH 5 0
BBX 4 7 1 0
BITMAP
80
80
E0
90
90
90
E0
ENDCHAR
STARTCHAR uni0254
ENCODING 596
SWIDTH 480 0
DWIDTH 5 0
BBX 4 5 1 0
BITMAP
60
90
80
90
60
ENDCHAR
STARTCHAR uni0255
ENCODING 597
SWIDTH 480 0
DWIDTH 5 0
BBX 4 5 1 0
BITMAP
60
90
80
B0
60
ENDCHAR
STARTCHAR uni0256
ENCODING 598
SWIDTH 480 0
DWIDTH 5 0
BBX 5 8 1 -1
BITMAP
10
10
70
90
90
B0
50
08
ENDCHAR
STARTCHAR uni0257
ENCODING 599
SWIDTH 480 0
DWIDTH 5 0
BBX 5 8 1 0
BITMAP
08
10
10
70
90
90
B0
50
ENDCHAR
STARTCHAR uni0258
ENCODING 600
SWIDTH 480 0
DWIDTH 5 0
BBX 4 5 1 0
BITMAP
60
90
F0
10
E0
ENDCHAR
STARTCHAR uni0259
ENCODING 601
SWIDTH 480 0
DWIDTH 5 0
BBX 4 5 1 0
BITMAP
E0
10
F0
90
60
ENDCHAR
STARTCHAR uni025A
ENCODING 602
SWIDTH 480 0
DWIDTH 5 0
BBX 5 5 1 0
BITMAP
E8
10
F0
90
60
ENDCHAR
STARTCHAR uni025B
ENCODING 603
SWIDTH 480 0
DWIDTH 5 0
BBX 4 6 1 0
BITMAP
70
80
60
80
80
70
ENDCHAR
STARTCHAR uni025C
ENCODING 604
SWIDTH 480 0
DWIDTH 5 0
BBX 4 6 1 0
BITMAP
E0
10
60
10
10
E0
ENDCHAR
STARTCHAR uni025D
ENCODING 605
SWIDTH 480 0
DWIDTH 5 0
BBX 5 6 1 0
BITMAP
E8
10
60
10
10
E0
ENDCHAR
STARTCHAR uni025E
ENCODING 606
SWIDTH 480 0
DWIDTH 5 0
BBX 4 6 1 0
BITMAP
60
90
A0
90
90
60
ENDCHAR
STARTCHAR uni025F
ENCODING 607
SWIDTH 480 0
DWIDTH 5 0
BBX 4 7 1 -2
BITMAP
60
20
30
60
20
20
C0
ENDCHAR
STARTCHAR uni0260
ENCODING 608
SWIDTH 480 0
DWIDTH 5 0
BBX 5 8 1 -2
BITMAP
08
70
90
90
B0
50
10
60
ENDCHAR
STARTCHAR uni0261
ENCODING 609
SWIDTH 480 0
DWIDTH 5 0
BBX 4 7 1 -2
BITMAP
70
90
90
B0
50
10
60
ENDCHAR
STARTCHAR uni0262
ENCODING 610
SWIDTH 480 0
DWIDTH 5 0
BBX 4 5 1 0
BITMAP
70
80
B0
90
70
ENDCHAR
STARTCHAR uni0263
ENCODING 611
SWIDTH 480 0
DWIDTH 5 0
BBX 4 7 1 -2
BITMAP
90
90
90
60
60
90
60
ENDCHAR
STARTCHAR uni0264
ENCODING 612
SWIDTH 480 0
DWIDTH 5 0
BBX 6 7 0 -2
BITMAP
84
48
48
30
30
48
30
ENDCHAR
STARTCHAR uni0265
ENCODING 613
SWIDTH 480 0
DWIDTH 5 0
BBX 4 7 1 0
BITMAP
90
90
90
90
70
10
10
ENDCHAR
STARTCHAR uni0266
ENCODING 614
SWIDTH 480 0
DWIDTH 5 0
BBX 4 8 1 0
BITMAP
60
80
80
E0
90
90
90
90
ENDCHAR
STARTCHAR uni0267
ENCODING 615
SWIDTH 480 0
DWIDTH 5 0
BBX 4 9 1 -1
BITMAP
60
80
80
E0
90
90
90
90
20
ENDCHAR
STARTCHAR uni0268
ENCODING 616
SWIDTH 480 0
DWIDTH 5 0
BBX 3 7 2 0
BITMAP
40
00
C0
40
E0
40
40
ENDCHAR
STARTCHAR uni0269
ENCODING 617
SWIDTH 480 0
DWIDTH 5 0
BBX 3 6 2 -1
BITMAP
C0
40
40
40
40
20
ENDCHAR
STARTCHAR uni026A
ENCODING 618
SWIDTH 480 0
DWIDTH 5 0
BBX 3 5 1 0
BITMAP
E0
40
40
40
E0
ENDCHAR
STARTCHAR uni026B
ENCODING 619
SWIDTH 480 0
DWIDTH 5 0
BBX 5 7 1 0
BITMAP
60
20
20
68
B0
20
20
ENDCHAR
STARTCHAR uni026C
ENCODING 620
SWIDTH 480 0
DWIDTH 5 0
BBX 4 7 1 0
BITMAP
60
20
60
A0
70
20
20
ENDCHAR
STARTCHAR uni026D
ENCODING 621
SWIDTH 480 0
DWIDTH 5 0
BBX 3 8 2 -1
BITMAP
C0
40
40
40
40
40
40
20
ENDCHAR
STARTCHAR uni026E
ENCODING 622
SWIDTH 480 0
DWIDTH 5 0
BBX 5 8 0 -1
BITMAP
80
F8
88
90
B0
88
48
30
ENDCHAR
STARTCHAR uni026F
ENCODING 623
SWIDTH 480 0
DWIDTH 5 0
BBX 4 5 1 0
BITMAP
90
90
90
F0
90
ENDCHAR
STARTCHAR uni0270
ENCODING 624
SWIDTH 480 0
DWIDTH 5 0
BBX 4 6 1 -1
BITMAP
90
90
90
F0
90
10
ENDCHAR
STARTCHAR uni0271
ENCODING 625
SWIDTH 480 0
DWIDTH 5 0
BBX 4 6 1 -1
BITMAP
90
F0
90
90
90
20
ENDCHAR
STARTCHAR uni0272
ENCODING 626
SWIDTH 480 0
DWIDTH 5 0
BBX 5 6 0 -1
BITMAP
70
48
48
48
48
80
ENDCHAR
STARTCHAR uni0273
ENCODING 627
SWIDTH 480 0
DWIDTH 5 0
BBX 5 6 1 -1
BITMAP
E0
90
90
90
90
08
ENDCHAR
STARTCHAR uni0274
ENCODING 628
SWIDTH 480 0
DWIDTH 5 0
BBX 4 5 1 0
BITMAP
90
D0
B0
90
90
ENDCHAR
STARTCHAR uni0275
ENCODING 629
SWIDTH 480 0
DWIDTH 5 0
BBX 4 5 1 0
BITMAP
60
90
F0
90
60
ENDCHAR
STARTCHAR uni0276
ENCODING 630
SWIDTH 480 0
DWIDTH 5 0
BBX 6 5 1 0
BITMAP
78
94
9C
90
7C
ENDCHAR
STARTCHAR uni0277
ENCODING 631
SWIDTH 480 0
DWIDTH 5 0
BBX 5 5 0 0
BITMAP
70
88
88
A8
D8
ENDCHAR
STARTCHAR uni0278
ENCODING 632
SWIDTH 480 0
DWIDTH 5 0
BBX 5 7 0 0
BITMAP
20
70
A8
A8
A8
70
20
ENDCHAR
STARTCHAR uni0279
ENCODING 633
SWIDTH 480 0
DWIDTH 5 0
BBX 4 5 1 0
BITMAP
10
10
10
30
D0
ENDCHAR
STARTCHAR uni027A
ENCODING 634
SWIDTH 480 0
DWIDTH 5 0
BBX 4 6 1 0
BITMAP
10
10
10
10
30
D0
ENDCHAR
STARTCHAR uni027B
ENCODING 635
SWIDTH 480 0
DWIDTH 5 0
BBX 5 6 1 -1
BITMAP
10
10
10
30
D0
08
ENDCHAR
STARTCHAR uni027C
ENCODING 636
SWIDTH 480 0
DWIDTH 5 0
BBX 4 6 1 0
BITMAP
B0
C0
80
80
80
80
ENDCHAR
STARTCHAR uni027D
ENCODING 637
SWIDTH 480 0
DWIDTH 5 0
BBX 4 7 1 -1
BITMAP
B0
C0
80
80
80
80
40
ENDCHAR
STARTCHAR uni027E
ENCODING 638
SWIDTH 480 0
DWIDTH 5 0
BBX 4 5 1 0
BITMAP
60
90
80
80
80
ENDCHAR
STARTCHAR uni027F
ENCODING 639
SWIDTH 480 0
DWIDTH 5 0
BBX 4 5 1 0
BITMAP
60
90
10
10
10
ENDCHAR
STARTCHAR uni0280
ENCODING 640
SWIDTH 480 0
DWIDTH 5 0
BBX 4 6 1 0
BITMAP
70
90
90
70
90
90
ENDCHAR
STARTCHAR uni0281
ENCODING 641
SWIDTH 480 0
DWIDTH 5 0
BBX 4 6 1 0
BITMAP
90
90
E0
90
90
E0
ENDCHAR
STARTCHAR uni0282
ENCODING 642
SWIDTH 480 0
DWIDTH 5 0
BBX 4 7 1 -2
BITMAP
70
80
60
10
E0
80
40
ENDCHAR
STARTCHAR uni0283
ENCODING 643
SWIDTH 480 0
DWIDTH 5 0
BBX 5 8 0 -1
BITMAP
18
20
20
20
20
20
20
C0
ENDCHAR
STARTCHAR uni0284
ENCODING 644
SWIDTH 480 0
DWIDTH 5 0
BBX 5 8 0 -1
BITMAP
18
20
20
70
20
20
20
C0
ENDCHAR
STARTCHAR uni0285
ENCODING 645
SWIDTH 480 0
DWIDTH 5 0
BBX 3 7 1 -1
BITMAP
80
40
40
40
40
40
20
ENDCHAR
STARTCHAR uni0286
ENCODING 646
SWIDTH 480 0
DWIDTH 5 0
BBX 5 8 0 -1
BITMAP
10
20
20
20
20
60
B0
48
ENDCHAR
STARTCHAR uni0287
ENCODING 647
SWIDTH 480 0
DWIDTH 5 0
BBX 4 7 1 0
BITMAP
C0
20
20
70
20
20
20
ENDCHAR
STARTCHAR uni0288
ENCODING 648
SWIDTH 480 0
DWIDTH 5 0
BBX 4 5 1 0
BITMAP
90
F0
90
90
70
ENDCHAR
STARTCHAR uni0289
ENCODING 649
SWIDTH 480 0
DWIDTH 5 0
BBX 4 5 1 0
BITMAP
90
60
90
90
70
ENDCHAR
STARTCHAR uni028A
ENCODING 650
SWIDTH 480 0
DWIDTH 5 0
BBX 4 5 1 0
BITMAP
A0
90
90
60
60
ENDCHAR
STARTCHAR uni028B
ENCODING 651
SWIDTH 480 0
DWIDTH 5 0
BBX 4 5 1 0
BITMAP
60
60
90
90
90
ENDCHAR
STARTCHAR uni028C
ENCODING 652
SWIDTH 480 0
DWIDTH 5 0
BBX 6 5 0 0
BITMAP
30
30
48
48
84
ENDCHAR
STARTCHAR uni028D
ENCODING 653
SWIDTH 480 0
DWIDTH 5 0
BBX 4 5 1 0
BITMAP
90
F0
90
90
90
ENDCHAR
STARTCHAR uni028E
ENCODING 654
SWIDTH 480 0
DWIDTH 5 0
BBX 4 7 1 -2
BITMAP
60
80
E0
90
90
90
90
ENDCHAR
STARTCHAR uni028F
ENCODING 655
SWIDTH 480 0
DWIDTH 5 0
BBX 5 4 0 0
BITMAP
88
50
20
20
ENDCHAR
STARTCHAR uni0290
ENCODING 656
SWIDTH 480 0
DWIDTH 5 0
BBX 4 7 1 -2
BITMAP
F0
20
40
80
F0
10
20
ENDCHAR
STARTCHAR uni0291
ENCODING 657
SWIDTH 480 0
DWIDTH 5 0
BBX 4 6 1 -1
BITMAP
F0
20
40
A0
F0
20
ENDCHAR
STARTCHAR uni0292
ENCODING 658
SWIDTH 480 0
DWIDTH 5 0
BBX 4 7 1 -2
BITMAP
F0
20
40
20
10
90
60
ENDCHAR
STARTCHAR uni0293
ENCODING 659
SWIDTH 480 0
DWIDTH 5 0
BBX 4 7 1 -2
BITMAP
F0
20
40
20
50
B0
60
ENDCHAR
STARTCHAR uni0294
ENCODING 660
SWIDTH 480 0
DWIDTH 5 0
BBX 5 7 0 0
BITMAP
70
88
08
10
20
20
20
ENDCHAR
STARTCHAR uni0295
ENCODING 661
SWIDTH 480 0
DWIDTH 5 0
BBX 5 7 0 0
BITMAP
70
88
80
40
20
20
20
ENDCHAR
STARTCHAR uni0296
ENCODING 662
SWIDTH 480 0
DWIDTH 5 0
BBX 5 7 0 0
BITMAP
20
20
20
10
08
88
70
ENDCHAR
STARTCHAR uni0297
ENCODING 663
SWIDTH 480 0
DWIDTH 5 0
BBX 4 7 1 -1
BITMAP
70
80
80
80
80
80
70
ENDCHAR
STARTCHAR uni0298
ENCODING 664
SWIDTH 480 0
DWIDTH 5 0
BBX 5 5 0 0
BITMAP
70
88
A8
88
70
ENDCHAR
STARTCHAR uni0299
ENCODING 665
SWIDTH 480 0
DWIDTH 5 0
BBX 4 5 1 0
BITMAP
E0
90
E0
90
E0
ENDCHAR
STARTCHAR uni029A
ENCODING 666
SWIDTH 480 0
DWIDTH 5 0
BBX 4 5 1 0
BITMAP
60
90
70
90
60
ENDCHAR
STARTCHAR uni029B
ENCODING 667
SWIDTH 480 0
DWIDTH 5 0
BBX 5 6 1 0
BITMAP
08
70
80
B0
90
70
ENDCHAR
STARTCHAR uni029C
ENCODING 668
SWIDTH 480 0
DWIDTH 5 0
BBX 4 5 1 0
BITMAP
90
90
F0
90
90
ENDCHAR
STARTCHAR uni029D
ENCODING 669
SWIDTH 480 0
DWIDTH 5 0
BBX 4 9 1 -2
BITMAP
20
00
60
20
20
20
70
A0
C0
ENDCHAR
STARTCHAR uni029E
ENCODING 670
SWIDTH 480 0
DWIDTH 5 0
BBX 4 7 1 0
BITMAP
90
90
70
50
90
10
10
ENDCHAR
STARTCHAR uni029F
ENCODING 671
SWIDTH 480 0
DWIDTH 5 0
BBX 4 5 1 0
BITMAP
80
80
80
80
F0
ENDCHAR
STARTCHAR uni02A0
ENCODING 672
SWIDTH 480 0
DWIDTH 5 0
BBX 5 8 1 -2
BITMAP
08
70
90
90
90
70
10
10
ENDCHAR
STARTCHAR uni02A1
ENCODING 673
SWIDTH 480 0
DWIDTH 5 0
BBX 5 7 0 0
BITMAP
70
88
08
10
20
70
20
ENDCHAR
STARTCHAR uni02A2
ENCODING 674
SWIDTH 480 0
DWIDTH 5 0
BBX 5 7 0 0
BITMAP
70
88
80
40
20
70
20
ENDCHAR
STARTCHAR uni02A3
ENCODING 675
SWIDTH 480 0
DWIDTH 5 0
BBX 6 7 0 0
BITMAP
20
20
7C
A4
A8
B0
7C
ENDCHAR
STARTCHAR uni02A4
ENCODING 676
SWIDTH 480 0
DWIDTH 5 0
BBX 6 8 0 -1
BITMAP
20
20
7C
A4
A8
A4
74
08
ENDCHAR
STARTCHAR uni02A5
ENCODING 677
SWIDTH 480 0
DWIDTH 5 0
BBX 6 8 0 -1
BITMAP
20
20
7C
A4
A8
B4
7C
10
ENDCHAR
STARTCHAR uni02A6
ENCODING 678
SWIDTH 480 0
DWIDTH 5 0
BBX 6 6 0 0
BITMAP
40
FC
60
58
44
38
ENDCHAR
STARTCHAR uni02A7
ENCODING 679
SWIDTH 480 0
DWIDTH 5 0
BBX 5 9 0 -2
BITMAP
08
50
F0
50
50
50
30
10
20
ENDCHAR
STARTCHAR uni02A8
ENCODING 680
SWIDTH 480 0
DWIDTH 5 0
BBX 6 7 0 -1
BITMAP
40
EC
50
58
54
3C
10
ENDCHAR
STARTCHAR uni02A9
ENCODING 681
SWIDTH 480 0
DWIDTH 5 0
BBX 6 9 0 -2
BITMAP
20
40
40
F8
54
54
54
08
10
ENDCHAR
STARTCHAR uni02AA
ENCODING 682
SWIDTH 480 0
DWIDTH 5 0
BBX 5 7 0 0
BITMAP
80
80
B8
C0
B0
88
F0
ENDCHAR
STARTCHAR uni02AB
ENCODING 683
SWIDTH 480 0
DWIDTH 5 0
BBX 5 7 0 0
BITMAP
80
80
F8
90
A0
C0
F8
ENDCHAR
STARTCHAR uni02AC
ENCODING 684
SWIDTH 480 0
DWIDTH 5 0
BBX 5 6 0 0
BITMAP
A8
A8
50
A8
A8
50
ENDCHAR
STARTCHAR uni02AD
ENCODING 685
SWIDTH 480 0
DWIDTH 5 0
BBX 5 5 0 0
BITMAP
F8
88
00
F8
88
ENDCHAR
STARTCHAR uni02AE
ENCODING 686
SWIDTH 480 0
DWIDTH 5 0
BBX 5 7 0 0
BITMAP
88
48
48
48
38
08
08
ENDCHAR
STARTCHAR uni02AF
ENCODING 687
SWIDTH 480 0
DWIDTH 5 0
BBX 6 8 0 -1
BITMAP
88
48
48
48
38
08
08
04
ENDCHAR
STARTCHAR uni02C2
ENCODING 706
SWIDTH 480 0
DWIDTH 5 0
BBX 3 5 1 0
BITMAP
20
40
80
40
20
ENDCHAR
STARTCHAR uni02C3
ENCODING 707
SWIDTH 480 0
DWIDTH 5 0
BBX 3 5 1 0
BITMAP
80
40
20
40
80
ENDCHAR
STARTCHAR uni02C4
ENCODING 708
SWIDTH 480 0
DWIDTH 5 0
BBX 5 3 0 2
BITMAP
88
50
20
ENDCHAR
STARTCHAR uni02C5
ENCODING 709
SWIDTH 480 0
DWIDTH 5 0
BBX 5 3 0 2
BITMAP
20
50
88
ENDCHAR
STARTCHAR circumflex
ENCODING 710
SWIDTH 480 0
DWIDTH 5 0
BBX 5 3 0 5
BITMAP
20
50
88
ENDCHAR
STARTCHAR caron
ENCODING 711
SWIDTH 480 0
DWIDTH 5 0
BBX 5 3 0 6
BITMAP
88
50
20
ENDCHAR
STARTCHAR uni02C8
ENCODING 712
SWIDTH 480 0
DWIDTH 5 0
BBX 1 2 2 5
BITMAP
80
80
ENDCHAR
STARTCHAR uni02C9
ENCODING 713
SWIDTH 480 0
DWIDTH 5 0
BBX 2 1 1 6
BITMAP
C0
ENDCHAR
STARTCHAR uni02CA
ENCODING 714
SWIDTH 480 0
DWIDTH 5 0
BBX 2 2 2 5
BITMAP
40
80
ENDCHAR
STARTCHAR uni02CB
ENCODING 715
SWIDTH 480 0
DWIDTH 5 0
BBX 2 2 2 5
BITMAP
80
40
ENDCHAR
STARTCHAR breve
ENCODING 728
SWIDTH 480 0
DWIDTH 5 0
BBX 5 2 1 6
BITMAP
88
70
ENDCHAR
STARTCHAR dotaccent
ENCODING 729
SWIDTH 480 0
DWIDTH 5 0
BBX 2 2 2 7
BITMAP
C0
C0
ENDCHAR
STARTCHAR ring
ENCODING 730
SWIDTH 480 0
DWIDTH 5 0
BBX 3 3 1 5
BITMAP
40
A0
40
ENDCHAR
STARTCHAR ogonek
ENCODING 731
SWIDTH 480 0
DWIDTH 5 0
BBX 2 3 2 -2
BITMAP
40
80
40
ENDCHAR
STARTCHAR tilde
ENCODING 732
SWIDTH 480 0
DWIDTH 5 0
BBX 5 2 0 6
BITMAP
68
B0
ENDCHAR
STARTCHAR hungarumlaut
ENCODING 733
SWIDTH 480 0
DWIDTH 5 0
BBX 4 3 1 6
BITMAP
50
50
A0
ENDCHAR
STARTCHAR uni02EE
ENCODING 750
SWIDTH 480 0
DWIDTH 5 0
BBX 4 3 1 4
BITMAP
90
90
90
ENDCHAR
STARTCHAR uni0343
ENCODING 835
SWIDTH 480 0
DWIDTH 5 0
BBX 2 4 1 3
BITMAP
40
40
40
80
ENDCHAR
STARTCHAR uni035C
ENCODING 860
SWIDTH 480 0
DWIDTH 5 0
BBX 5 2 0 -1
BITMAP
88
70
ENDCHAR
STARTCHAR uni0361
ENCODING 865
SWIDTH 480 0
DWIDTH 5 0
BBX 5 2 0 7
BITMAP
70
88
ENDCHAR
STARTCHAR uni0370
ENCODING 880
SWIDTH 480 0
DWIDTH 5 0
BBX 4 7 0 0
BITMAP
80
80
80
F0
80
80
80
ENDCHAR
STARTCHAR uni0371
ENCODING 881
SWIDTH 480 0
DWIDTH 5 0
BBX 5 6 0 0
BITMAP
80
40
40
78
40
40
ENDCHAR
STARTCHAR uni0372
ENCODING 882
SWIDTH 480 0
DWIDTH 5 0
BBX 5 6 0 0
BITMAP
F8
A8
20
20
20
20
ENDCHAR
STARTCHAR uni0373
ENCODING 883
SWIDTH 480 0
DWIDTH 5 0
BBX 5 5 0 0
BITMAP
F8
A8
20
20
20
ENDCHAR
STARTCHAR uni0374
ENCODING 884
SWIDTH 480 0
DWIDTH 5 0
BBX 3 2 1 6
BITMAP
60
C0
ENDCHAR
STARTCHAR uni0375
ENCODING 885
SWIDTH 480 0
DWIDTH 5 0
BBX 4 3 0 -1
BITMAP
30
60
C0
ENDCHAR
STARTCHAR uni0376
ENCODING 886
SWIDTH 480 0
DWIDTH 5 0
BBX 4 6 1 0
BITMAP
90
B0
B0
D0
D0
90
ENDCHAR
STARTCHAR uni0377
ENCODING 887
SWIDTH 480 0
DWIDTH 5 0
BBX 5 6 1 -1
BITMAP
90
B0
D0
90
90
08
ENDCHAR
STARTCHAR uni037A
ENCODING 890
SWIDTH 480 0
DWIDTH 5 0
BBX 2 2 1 -2
BITMAP
80
C0
ENDCHAR
STARTCHAR uni037B
ENCODING 891
SWIDTH 480 0
DWIDTH 5 0
BBX 5 5 0 0
BITMAP
70
88
08
88
70
ENDCHAR
STARTCHAR uni037C
ENCODING 892
SWIDTH 480 0
DWIDTH 5 0
BBX 5 5 0 0
BITMAP
70
88
A0
88
70
ENDCHAR
STARTCHAR uni037D
ENCODING 893
SWIDTH 480 0
DWIDTH 5 0
BBX 5 5 0 0
BITMAP
70
88
28
88
70
ENDCHAR
STARTCHAR uni037E
ENCODING 894
SWIDTH 480 0
DWIDTH 5 0
BBX 2 6 1 -1
BITMAP
40
40
00
40
40
80
ENDCHAR
STARTCHAR uni037F
ENCODING 895
SWIDTH 480 0
DWIDTH 5 0
BBX 6 3 0 1
BITMAP
FC
FC
FC
ENDCHAR
STARTCHAR uni0380
ENCODING 896
SWIDTH 480 0
DWIDTH 5 0
BBX 5 3 0 0
BITMAP
F8
F8
F8
ENDCHAR
STARTCHAR uni0381
ENCODING 897
SWIDTH 480 0
DWIDTH 5 0
BBX 5 3 0 0
BITMAP
A8
50
A8
ENDCHAR
STARTCHAR tonos
ENCODING 900
SWIDTH 480 0
DWIDTH 5 0
BBX 2 3 2 5
BITMAP
40
C0
80
ENDCHAR
STARTCHAR dieresistonos
ENCODING 901
SWIDTH 480 0
DWIDTH 5 0
BBX 6 3 0 5
BITMAP
10
B4
20
ENDCHAR
STARTCHAR Alphatonos
ENCODING 902
SWIDTH 480 0
DWIDTH 5 0
BBX 4 9 1 0
BITMAP
20
40
00
60
90
90
F0
90
90
ENDCHAR
STARTCHAR anoteleia
ENCODING 903
SWIDTH 480 0
DWIDTH 5 0
BBX 2 2 2 3
BITMAP
C0
C0
ENDCHAR
STARTCHAR Epsilontonos
ENCODING 904
SWIDTH 480 0
DWIDTH 5 0
BBX 4 8 1 0
BITMAP
20
40
F0
80
E0
80
80
F0
ENDCHAR
STARTCHAR Etatonos
ENCODING 905
SWIDTH 480 0
DWIDTH 5 0
BBX 5 7 0 0
BITMAP
20
48
C8
78
48
48
48
ENDCHAR
STARTCHAR Iotatonos
ENCODING 906
SWIDTH 480 0
DWIDTH 5 0
BBX 4 7 0 0
BITMAP
20
70
A0
20
20
20
70
ENDCHAR
STARTCHAR Omicrontonos
ENCODING 908
SWIDTH 480 0
DWIDTH 5 0
BBX 5 8 0 0
BITMAP
40
80
30
48
48
48
48
30
ENDCHAR
STARTCHAR Upsilontonos
ENCODING 910
SWIDTH 480 0
DWIDTH 5 0
BBX 5 7 0 0
BITMAP
40
A8
28
28
10
10
10
ENDCHAR
STARTCHAR Omegatonos
ENCODING 911
SWIDTH 480 0
DWIDTH 5 0
BBX 5 8 0 0
BITMAP
40
80
70
88
88
88
50
D8
ENDCHAR
STARTCHAR iotadieresistonos
ENCODING 912
SWIDTH 480 0
DWIDTH 5 0
BBX 6 9 0 0
BITMAP
10
B4
20
00
20
20
20
20
20
ENDCHAR
STARTCHAR Alpha
ENCODING 913
SWIDTH 480 0
DWIDTH 5 0
BBX 4 6 1 0
BITMAP
60
90
90
F0
90
90
ENDCHAR
STARTCHAR Beta
ENCODING 914
SWIDTH 480 0
DWIDTH 5 0
BBX 4 6 1 0
BITMAP
E0
90
E0
90
90
E0
ENDCHAR
STARTCHAR Gamma
ENCODING 915
SWIDTH 480 0
DWIDTH 5 0
BBX 4 5 1 0
BITMAP
F0
80
80
80
80
ENDCHAR
STARTCHAR Delta
ENCODING 916
SWIDTH 480 0
DWIDTH 5 0
BBX 5 6 0 0
BITMAP
20
20
50
50
88
F8
ENDCHAR
STARTCHAR Epsilon
ENCODING 917
SWIDTH 480 0
DWIDTH 5 0
BBX 4 6 1 0
BITMAP
F0
80
E0
80
80
F0
ENDCHAR
STARTCHAR Zeta
ENCODING 918
SWIDTH 480 0
DWIDTH 5 0
BBX 4 6 1 0
BITMAP
F0
10
20
40
80
F0
ENDCHAR
STARTCHAR Eta
ENCODING 919
SWIDTH 480 0
DWIDTH 5 0
BBX 4 6 1 0
BITMAP
90
90
F0
90
90
90
ENDCHAR
STARTCHAR Theta
ENCODING 920
SWIDTH 480 0
DWIDTH 5 0
BBX 4 6 1 0
BITMAP
60
90
B0
D0
90
60
ENDCHAR
STARTCHAR Iota
ENCODING 921
SWIDTH 480 0
DWIDTH 5 0
BBX 3 6 1 0
BITMAP
E0
40
40
40
40
E0
ENDCHAR
STARTCHAR Kappa
ENCODING 922
SWIDTH 480 0
DWIDTH 5 0
BBX 4 6 1 0
BITMAP
90
A0
C0
A0
90
90
ENDCHAR
STARTCHAR Lambda
ENCODING 923
SWIDTH 480 0
DWIDTH 5 0
BBX 5 6 0 0
BITMAP
20
20
50
50
88
88
ENDCHAR
STARTCHAR Mu
ENCODING 924
SWIDTH 480 0
DWIDTH 5 0
BBX 4 6 1 0
BITMAP
90
F0
90
90
90
90
ENDCHAR
STARTCHAR Nu
ENCODING 925
SWIDTH 480 0
DWIDTH 5 0
BBX 4 6 1 0
BITMAP
90
D0
D0
B0
B0
90
ENDCHAR
STARTCHAR Xi
ENCODING 926
SWIDTH 480 0
DWIDTH 5 0
BBX 5 5 0 0
BITMAP
F8
00
70
00
F8
ENDCHAR
STARTCHAR Omicron
ENCODING 927
SWIDTH 480 0
DWIDTH 5 0
BBX 4 6 1 0
BITMAP
60
90
90
90
90
60
ENDCHAR
STARTCHAR Pi
ENCODING 928
SWIDTH 480 0
DWIDTH 5 0
BBX 4 6 1 0
BITMAP
F0
90
90
90
90
90
ENDCHAR
STARTCHAR Rho
ENCODING 929
SWIDTH 480 0
DWIDTH 5 0
BBX 4 6 1 0
BITMAP
E0
90
90
E0
80
80
ENDCHAR
STARTCHAR Sigma
ENCODING 931
SWIDTH 480 0
DWIDTH 5 0
BBX 5 6 0 0
BITMAP
F8
40
20
40
80
F8
ENDCHAR
STARTCHAR Tau
ENCODING 932
SWIDTH 480 0
DWIDTH 5 0
BBX 5 6 0 0
BITMAP
F8
20
20
20
20
20
ENDCHAR
STARTCHAR Upsilon
ENCODING 933
SWIDTH 480 0
DWIDTH 5 0
BBX 5 6 0 0
BITMAP
88
88
50
20
20
20
ENDCHAR
STARTCHAR Phi
ENCODING 934
SWIDTH 480 0
DWIDTH 5 0
BBX 5 7 0 0
BITMAP
20
70
A8
A8
A8
70
20
ENDCHAR
STARTCHAR Chi
ENCODING 935
SWIDTH 480 0
DWIDTH 5 0
BBX 4 6 1 0
BITMAP
90
90
60
90
90
90
ENDCHAR
STARTCHAR Psi
ENCODING 936
SWIDTH 480 0
DWIDTH 5 0
BBX 5 6 0 0
BITMAP
A8
A8
A8
70
20
20
ENDCHAR
STARTCHAR Omega
ENCODING 937
SWIDTH 480 0
DWIDTH 5 0
BBX 5 6 0 0
BITMAP
70
88
88
88
50
D8
ENDCHAR
STARTCHAR Iotadieresis
ENCODING 938
SWIDTH 480 0
DWIDTH 5 0
BBX 3 8 1 0
BITMAP
A0
00
40
40
40
40
40
40
ENDCHAR
STARTCHAR Upsilondieresis
ENCODING 939
SWIDTH 480 0
DWIDTH 5 0
BBX 5 8 0 0
BITMAP
50
00
88
88
50
20
20
20
ENDCHAR
STARTCHAR alphatonos
ENCODING 940
SWIDTH 480 0
DWIDTH 5 0
BBX 4 8 1 0
BITMAP
20
40
00
70
90
90
B0
50
ENDCHAR
STARTCHAR epsilontonos
ENCODING 941
SWIDTH 480 0
DWIDTH 5 0
BBX 4 8 0 0
BITMAP
20
40
00
70
80
E0
80
70
ENDCHAR
STARTCHAR etatonos
ENCODING 942
SWIDTH 480 0
DWIDTH 5 0
BBX 4 9 1 -1
BITMAP
20
40
00
E0
90
90
90
90
10
ENDCHAR
STARTCHAR iotatonos
ENCODING 943
SWIDTH 480 0
DWIDTH 5 0
BBX 3 8 1 0
BITMAP
20
40
00
C0
40
40
40
40
ENDCHAR
STARTCHAR upsilondieresistonos
ENCODING 944
SWIDTH 480 0
DWIDTH 5 0
BBX 6 8 0 0
BITMAP
10
B4
20
48
48
48
48
38
ENDCHAR
STARTCHAR alpha
ENCODING 945
SWIDTH 480 0
DWIDTH 5 0
BBX 4 5 1 0
BITMAP
70
90
90
B0
50
ENDCHAR
STARTCHAR beta
ENCODING 946
SWIDTH 480 0
DWIDTH 5 0
BBX 4 7 0 -1
BITMAP
60
90
A0
90
90
A0
80
ENDCHAR
STARTCHAR gamma
ENCODING 947
SWIDTH 480 0
DWIDTH 5 0
BBX 4 7 1 -2
BITMAP
90
90
50
60
50
50
20
ENDCHAR
STARTCHAR delta
ENCODING 948
SWIDTH 480 0
DWIDTH 5 0
BBX 4 7 1 0
BITMAP
F0
80
60
90
90
90
60
ENDCHAR
STARTCHAR epsilon
ENCODING 949
SWIDTH 480 0
DWIDTH 5 0
BBX 4 5 0 0
BITMAP
70
80
E0
80
70
ENDCHAR
STARTCHAR zeta
ENCODING 950
SWIDTH 480 0
DWIDTH 5 0
BBX 5 7 0 -1
BITMAP
F0
20
40
80
80
78
10
ENDCHAR
STARTCHAR eta
ENCODING 951
SWIDTH 480 0
DWIDTH 5 0
BBX 4 6 1 -1
BITMAP
E0
90
90
90
90
10
ENDCHAR
STARTCHAR theta
ENCODING 952
SWIDTH 480 0
DWIDTH 5 0
BBX 4 5 0 0
BITMAP
60
90
F0
90
60
ENDCHAR
STARTCHAR iota
ENCODING 953
SWIDTH 480 0
DWIDTH 5 0
BBX 2 5 2 0
BITMAP
C0
40
40
40
40
ENDCHAR
STARTCHAR kappa
ENCODING 954
SWIDTH 480 0
DWIDTH 5 0
BBX 4 5 1 0
BITMAP
90
A0
E0
90
90
ENDCHAR
STARTCHAR lambda
ENCODING 955
SWIDTH 480 0
DWIDTH 5 0
BBX 4 7 1 0
BITMAP
80
80
40
60
60
90
90
ENDCHAR
STARTCHAR mu
ENCODING 956
SWIDTH 480 0
DWIDTH 5 0
BBX 5 6 1 -1
BITMAP
90
90
90
90
E8
80
ENDCHAR
STARTCHAR nu
ENCODING 957
SWIDTH 480 0
DWIDTH 5 0
BBX 4 5 1 0
BITMAP
90
90
90
60
60
ENDCHAR
STARTCHAR xi
ENCODING 958
SWIDTH 480 0
DWIDTH 5 0
BBX 4 8 0 -2
BITMAP
60
90
40
80
80
60
10
20
ENDCHAR
STARTCHAR omicron
ENCODING 959
SWIDTH 480 0
DWIDTH 5 0
BBX 4 5 1 0
BITMAP
60
90
90
90
60
ENDCHAR
STARTCHAR pi
ENCODING 960
SWIDTH 480 0
DWIDTH 5 0
BBX 5 5 1 0
BITMAP
F8
50
50
50
50
ENDCHAR
STARTCHAR rho
ENCODING 961
SWIDTH 480 0
DWIDTH 5 0
BBX 4 8 1 -3
BITMAP
60
90
90
90
E0
80
80
80
ENDCHAR
STARTCHAR sigma1
ENCODING 962
SWIDTH 480 0
DWIDTH 5 0
BBX 4 7 1 -2
BITMAP
70
80
80
80
70
20
40
ENDCHAR
STARTCHAR sigma
ENCODING 963
SWIDTH 480 0
DWIDTH 5 0
BBX 5 5 1 0
BITMAP
78
90
90
90
60
ENDCHAR
STARTCHAR tau
ENCODING 964
SWIDTH 480 0
DWIDTH 5 0
BBX 5 5 0 0
BITMAP
78
A0
20
20
10
ENDCHAR
STARTCHAR upsilon
ENCODING 965
SWIDTH 480 0
DWIDTH 5 0
BBX 4 5 1 0
BITMAP
90
90
90
90
70
ENDCHAR
STARTCHAR phi
ENCODING 966
SWIDTH 480 0
DWIDTH 5 0
BBX 5 7 1 -2
BITMAP
B0
A8
A8
A8
70
20
20
ENDCHAR
STARTCHAR chi
ENCODING 967
SWIDTH 480 0
DWIDTH 5 0
BBX 4 5 1 0
BITMAP
90
90
60
90
90
ENDCHAR
STARTCHAR psi
ENCODING 968
SWIDTH 480 0
DWIDTH 5 0
BBX 5 7 1 -2
BITMAP
A8
A8
A8
70
20
20
20
ENDCHAR
STARTCHAR omega
ENCODING 969
SWIDTH 480 0
DWIDTH 5 0
BBX 5 5 0 0
BITMAP
50
88
A8
A8
50
ENDCHAR
STARTCHAR iotadieresis
ENCODING 970
SWIDTH 480 0
DWIDTH 5 0
BBX 3 7 2 0
BITMAP
A0
00
C0
40
40
40
40
ENDCHAR
STARTCHAR upsilondieresis
ENCODING 971
SWIDTH 480 0
DWIDTH 5 0
BBX 4 7 1 0
BITMAP
A0
00
90
90
90
90
70
ENDCHAR
STARTCHAR omicrontonos
ENCODING 972
SWIDTH 480 0
DWIDTH 5 0
BBX 4 8 1 0
BITMAP
10
20
00
60
90
90
90
60
ENDCHAR
STARTCHAR upsilontonos
ENCODING 973
SWIDTH 480 0
DWIDTH 5 0
BBX 4 8 1 0
BITMAP
20
40
00
90
90
90
90
70
ENDCHAR
STARTCHAR omegatonos
ENCODING 974
SWIDTH 480 0
DWIDTH 5 0
BBX 5 8 0 0
BITMAP
20
40
00
50
88
A8
D8
88
ENDCHAR
STARTCHAR uni03CF
ENCODING 975
SWIDTH 480 0
DWIDTH 5 0
BBX 4 7 1 -1
BITMAP
90
A0
C0
A0
90
90
20
ENDCHAR
STARTCHAR uni03D0
ENCODING 976
SWIDTH 480 0
DWIDTH 5 0
BBX 4 6 0 0
BITMAP
60
90
E0
90
90
60
ENDCHAR
STARTCHAR theta1
ENCODING 977
SWIDTH 480 0
DWIDTH 5 0
BBX 6 6 0 0
BITMAP
30
48
5C
E8
48
30
ENDCHAR
STARTCHAR Upsilon1
ENCODING 978
SWIDTH 480 0
DWIDTH 5 0
BBX 6 6 0 0
BITMAP
88
8C
50
20
20
20
ENDCHAR
STARTCHAR uni03D3
ENCODING 979
SWIDTH 480 0
DWIDTH 5 0
BBX 6 7 0 0
BITMAP
40
88
8C
50
20
20
20
ENDCHAR
STARTCHAR uni03D4
ENCODING 980
SWIDTH 480 0
DWIDTH 5 0
BBX 6 8 0 0
BITMAP
50
00
88
8C
50
20
20
20
ENDCHAR
STARTCHAR phi1
ENCODING 981
SWIDTH 480 0
DWIDTH 5 0
BBX 5 9 0 -2
BITMAP
20
20
70
A8
A8
A8
70
20
20
ENDCHAR
STARTCHAR omega1
ENCODING 982
SWIDTH 480 0
DWIDTH 5 0
BBX 5 5 0 0
BITMAP
F8
88
A8
D8
88
ENDCHAR
STARTCHAR uni03D7
ENCODING 983
SWIDTH 480 0
DWIDTH 5 0
BBX 5 6 1 -1
BITMAP
90
90
60
90
98
20
ENDCHAR
STARTCHAR uni03D8
ENCODING 984
SWIDTH 480 0
DWIDTH 5 0
BBX 5 8 0 -2
BITMAP
70
88
88
88
88
70
20
20
ENDCHAR
STARTCHAR uni03D9
ENCODING 985
SWIDTH 480 0
DWIDTH 5 0
BBX 5 7 0 -2
BITMAP
70
88
88
88
70
20
20
ENDCHAR
STARTCHAR uni03DA
ENCODING 986
SWIDTH 480 0
DWIDTH 5 0
BBX 5 8 1 -2
BITMAP
70
80
80
80
80
70
08
30
ENDCHAR
STARTCHAR uni03DB
ENCODING 987
SWIDTH 480 0
DWIDTH 5 0
BBX 5 7 1 -2
BITMAP
70
80
80
80
70
08
30
ENDCHAR
STARTCHAR uni03DC
ENCODING 988
SWIDTH 480 0
DWIDTH 5 0
BBX 4 6 1 0
BITMAP
F0
80
F0
90
80
80
ENDCHAR
STARTCHAR uni03DD
ENCODING 989
SWIDTH 480 0
DWIDTH 5 0
BBX 4 6 1 -1
BITMAP
F0
80
E0
A0
80
80
ENDCHAR
STARTCHAR uni03DE
ENCODING 990
SWIDTH 480 0
DWIDTH 5 0
BBX 6 6 0 -1
BITMAP
80
48
58
68
48
04
ENDCHAR
STARTCHAR uni03DF
ENCODING 991
SWIDTH 480 0
DWIDTH 5 0
BBX 3 7 0 -1
BITMAP
20
40
80
E0
20
40
80
ENDCHAR
STARTCHAR uni03E0
ENCODING 992
SWIDTH 480 0
DWIDTH 5 0
BBX 4 7 0 -1
BITMAP
40
20
60
90
30
50
10
ENDCHAR
STARTCHAR uni03E1
ENCODING 993
SWIDTH 480 0
DWIDTH 5 0
BBX 4 7 0 -1
BITMAP
40
20
60
90
30
50
10
ENDCHAR
STARTCHAR uni03E2
ENCODING 994
SWIDTH 480 0
DWIDTH 5 0
BBX 5 7 1 -1
BITMAP
A8
A8
A8
A8
58
08
F0
ENDCHAR
STARTCHAR uni03E3
ENCODING 995
SWIDTH 480 0
DWIDTH 5 0
BBX 5 7 1 -2
BITMAP
A8
A8
A8
A8
58
08
F0
ENDCHAR
STARTCHAR uni03E4
ENCODING 996
SWIDTH 480 0
DWIDTH 5 0
BBX 4 7 0 0
BITMAP
50
90
90
70
10
10
10
ENDCHAR
STARTCHAR uni03E5
ENCODING 997
SWIDTH 480 0
DWIDTH 5 0
BBX 4 6 0 0
BITMAP
50
90
90
70
10
10
ENDCHAR
STARTCHAR uni03E6
ENCODING 998
SWIDTH 480 0
DWIDTH 5 0
BBX 4 9 0 -2
BITMAP
80
80
80
E0
90
90
90
10
E0
ENDCHAR
STARTCHAR uni03E7
ENCODING 999
SWIDTH 480 0
DWIDTH 5 0
BBX 5 7 0 -1
BITMAP
10
70
A8
48
08
70
80
ENDCHAR
STARTCHAR uni03E8
ENCODING 1000
SWIDTH 480 0
DWIDTH 5 0
BBX 4 6 1 0
BITMAP
E0
10
60
80
90
60
ENDCHAR
STARTCHAR uni03E9
ENCODING 1001
SWIDTH 480 0
DWIDTH 5 0
BBX 4 6 1 0
BITMAP
E0
10
60
80
80
70
ENDCHAR
STARTCHAR uni03EA
ENCODING 1002
SWIDTH 480 0
DWIDTH 5 0
BBX 5 7 0 0
BITMAP
50
A8
20
50
50
88
F8
ENDCHAR
STARTCHAR uni03EB
ENCODING 1003
SWIDTH 480 0
DWIDTH 5 0
BBX 5 5 0 0
BITMAP
50
A8
20
50
70
ENDCHAR
STARTCHAR uni03EC
ENCODING 1004
SWIDTH 480 0
DWIDTH 5 0
BBX 4 7 0 0
BITMAP
70
80
E0
90
90
90
60
ENDCHAR
STARTCHAR uni03ED
ENCODING 1005
SWIDTH 480 0
DWIDTH 5 0
BBX 4 6 0 0
BITMAP
60
80
A0
90
90
60
ENDCHAR
STARTCHAR uni03EE
ENCODING 1006
SWIDTH 480 0
DWIDTH 5 0
BBX 5 6 0 0
BITMAP
20
70
A8
20
20
20
ENDCHAR
STARTCHAR uni03EF
ENCODING 1007
SWIDTH 480 0
DWIDTH 5 0
BBX 5 6 0 0
BITMAP
30
20
F8
A0
20
60
ENDCHAR
STARTCHAR uni03F0
ENCODING 1008
SWIDTH 480 0
DWIDTH 5 0
BBX 4 5 1 0
BITMAP
90
A0
60
50
90
ENDCHAR
STARTCHAR uni03F1
ENCODING 1009
SWIDTH 480 0
DWIDTH 5 0
BBX 4 8 0 -3
BITMAP
60
90
90
90
E0
80
60
10
ENDCHAR
STARTCHAR uni03F2
ENCODING 1010
SWIDTH 480 0
DWIDTH 5 0
BBX 4 5 1 0
BITMAP
70
80
80
80
70
ENDCHAR
STARTCHAR uni03F3
ENCODING 1011
SWIDTH 480 0
DWIDTH 5 0
BBX 3 9 1 -2
BITMAP
20
00
60
20
20
20
20
20
C0
ENDCHAR
STARTCHAR uni03F4
ENCODING 1012
SWIDTH 480 0
DWIDTH 5 0
BBX 4 6 1 0
BITMAP
60
90
B0
D0
90
60
ENDCHAR
STARTCHAR uni03F5
ENCODING 1013
SWIDTH 480 0
DWIDTH 5 0
BBX 4 5 0 0
BITMAP
70
80
E0
80
70
ENDCHAR
STARTCHAR uni03F6
ENCODING 1014
SWIDTH 480 0
DWIDTH 5 0
BBX 4 5 0 0
BITMAP
E0
10
70
10
E0
ENDCHAR
STARTCHAR uni03F7
ENCODING 1015
SWIDTH 480 0
DWIDTH 5 0
BBX 4 6 0 0
BITMAP
80
E0
90
90
E0
80
ENDCHAR
STARTCHAR uni03F8
ENCODING 1016
SWIDTH 480 0
DWIDTH 5 0
BBX 4 7 0 -1
BITMAP
80
E0
90
90
E0
80
80
ENDCHAR
STARTCHAR uni03F9
ENCODING 1017
SWIDTH 480 0
DWIDTH 5 0
BBX 4 6 1 0
BITMAP
70
80
80
80
80
70
ENDCHAR
STARTCHAR uni03FA
ENCODING 1018
SWIDTH 480 0
DWIDTH 5 0
BBX 4 6 1 0
BITMAP
90
F0
90
90
90
90
ENDCHAR
STARTCHAR uni03FB
ENCODING 1019
SWIDTH 480 0
DWIDTH 5 0
BBX 4 6 1 -2
BITMAP
90
F0
90
90
80
80
ENDCHAR
STARTCHAR uni03FC
ENCODING 1020
SWIDTH 480 0
DWIDTH 5 0
BBX 4 8 1 -3
BITMAP
60
90
90
90
E0
80
C0
80
ENDCHAR
STARTCHAR uni03FD
ENCODING 1021
SWIDTH 480 0
DWIDTH 5 0
BBX 5 6 1 0
BITMAP
70
88
08
08
88
70
ENDCHAR
STARTCHAR uni03FE
ENCODING 1022
SWIDTH 480 0
DWIDTH 5 0
BBX 4 6 1 0
BITMAP
70
80
A0
80
80
70
ENDCHAR
STARTCHAR uni03FF
ENCODING 1023
SWIDTH 480 0
DWIDTH 5 0
BBX 4 6 1 0
BITMAP
E0
10
50
10
10
E0
ENDCHAR
STARTCHAR afii10023
ENCODING 1025
SWIDTH 480 0
DWIDTH 5 0
BBX 4 8 1 0
BITMAP
A0
00
F0
80
E0
80
80
F0
ENDCHAR
STARTCHAR afii10051
ENCODING 1026
SWIDTH 480 0
DWIDTH 5 0
BBX 5 8 0 -1
BITMAP
E0
40
70
48
48
48
48
10
ENDCHAR
STARTCHAR afii10052
ENCODING 1027
SWIDTH 480 0
DWIDTH 5 0
BBX 4 8 1 0
BITMAP
20
40
F0
80
80
80
80
80
ENDCHAR
STARTCHAR afii10053
ENCODING 1028
SWIDTH 480 0
DWIDTH 5 0
BBX 4 6 0 0
BITMAP
60
90
C0
80
90
60
ENDCHAR
STARTCHAR afii10054
ENCODING 1029
SWIDTH 480 0
DWIDTH 5 0
BBX 4 6 1 0
BITMAP
70
80
60
10
10
E0
ENDCHAR
STARTCHAR afii10055
ENCODING 1030
SWIDTH 480 0
DWIDTH 5 0
BBX 1 6 2 0
BITMAP
80
80
80
80
80
80
ENDCHAR
STARTCHAR afii10056
ENCODING 1031
SWIDTH 480 0
DWIDTH 5 0
BBX 3 7 1 0
BITMAP
A0
40
40
40
40
40
40
ENDCHAR
STARTCHAR afii10057
ENCODING 1032
SWIDTH 480 0
DWIDTH 5 0
BBX 4 6 1 0
BITMAP
70
10
10
10
90
60
ENDCHAR
STARTCHAR afii10058
ENCODING 1033
SWIDTH 480 0
DWIDTH 5 0
BBX 6 6 0 0
BITMAP
30
50
58
54
54
98
ENDCHAR
STARTCHAR afii10059
ENCODING 1034
SWIDTH 480 0
DWIDTH 5 0
BBX 5 6 1 0
BITMAP
A0
A0
F0
A8
A8
B0
ENDCHAR
STARTCHAR afii10060
ENCODING 1035
SWIDTH 480 0
DWIDTH 5 0
BBX 5 7 0 0
BITMAP
F0
40
70
48
48
48
48
ENDCHAR
STARTCHAR afii10061
ENCODING 1036
SWIDTH 480 0
DWIDTH 5 0
BBX 4 7 1 0
BITMAP
20
D0
A0
C0
A0
90
90
ENDCHAR
STARTCHAR afii10062
ENCODING 1038
SWIDTH 480 0
DWIDTH 5 0
BBX 4 8 1 0
BITMAP
50
20
90
90
90
70
10
60
ENDCHAR
STARTCHAR afii10145
ENCODING 1039
SWIDTH 480 0
DWIDTH 5 0
BBX 5 7 0 -1
BITMAP
88
88
88
88
F8
20
20
ENDCHAR
STARTCHAR afii10017
ENCODING 1040
SWIDTH 480 0
DWIDTH 5 0
BBX 4 6 0 0
BITMAP
60
90
90
F0
90
90
ENDCHAR
STARTCHAR afii10018
ENCODING 1041
SWIDTH 480 0
DWIDTH 5 0
BBX 4 7 1 0
BITMAP
E0
80
E0
90
90
90
E0
ENDCHAR
STARTCHAR afii10019
ENCODING 1042
SWIDTH 480 0
DWIDTH 5 0
BBX 4 6 1 0
BITMAP
E0
90
E0
90
90
E0
ENDCHAR
STARTCHAR afii10020
ENCODING 1043
SWIDTH 480 0
DWIDTH 5 0
BBX 4 6 1 0
BITMAP
F0
80
80
80
80
80
ENDCHAR
STARTCHAR afii10021
ENCODING 1044
SWIDTH 480 0
DWIDTH 5 0
BBX 5 7 0 -1
BITMAP
30
50
50
50
50
F8
88
ENDCHAR
STARTCHAR afii10022
ENCODING 1045
SWIDTH 480 0
DWIDTH 5 0
BBX 4 6 1 0
BITMAP
F0
80
E0
80
80
F0
ENDCHAR
STARTCHAR afii10024
ENCODING 1046
SWIDTH 480 0
DWIDTH 5 0
BBX 5 6 0 0
BITMAP
A8
A8
70
A8
A8
A8
ENDCHAR
STARTCHAR afii10025
ENCODING 1047
SWIDTH 480 0
DWIDTH 5 0
BBX 4 6 1 0
BITMAP
60
90
20
10
90
60
ENDCHAR
STARTCHAR afii10026
ENCODING 1048
SWIDTH 480 0
DWIDTH 5 0
BBX 4 6 1 0
BITMAP
90
B0
B0
D0
D0
90
ENDCHAR
STARTCHAR afii10027
ENCODING 1049
SWIDTH 480 0
DWIDTH 5 0
BBX 4 8 1 0
BITMAP
50
20
90
B0
B0
D0
D0
90
ENDCHAR
STARTCHAR afii10028
ENCODING 1050
SWIDTH 480 0
DWIDTH 5 0
BBX 4 6 1 0
BITMAP
90
A0
C0
A0
90
90
ENDCHAR
STARTCHAR afii10029
ENCODING 1051
SWIDTH 480 0
DWIDTH 5 0
BBX 4 6 1 0
BITMAP
30
50
50
50
50
90
ENDCHAR
STARTCHAR afii10030
ENCODING 1052
SWIDTH 480 0
DWIDTH 5 0
BBX 4 6 1 0
BITMAP
90
F0
90
90
90
90
ENDCHAR
STARTCHAR afii10031
ENCODING 1053
SWIDTH 480 0
DWIDTH 5 0
BBX 4 6 1 0
BITMAP
90
90
F0
90
90
90
ENDCHAR
STARTCHAR afii10032
ENCODING 1054
SWIDTH 480 0
DWIDTH 5 0
BBX 4 6 1 0
BITMAP
60
90
90
90
90
60
ENDCHAR
STARTCHAR afii10033
ENCODING 1055
SWIDTH 480 0
DWIDTH 5 0
BBX 4 6 1 0
BITMAP
F0
90
90
90
90
90
ENDCHAR
STARTCHAR afii10035
ENCODING 1057
SWIDTH 480 0
DWIDTH 5 0
BBX 4 6 1 0
BITMAP
70
80
80
80
80
70
ENDCHAR
STARTCHAR afii10036
ENCODING 1058
SWIDTH 480 0
DWIDTH 5 0
BBX 3 6 2 0
BITMAP
E0
40
40
40
40
40
ENDCHAR
STARTCHAR afii10037
ENCODING 1059
SWIDTH 480 0
DWIDTH 5 0
BBX 4 6 1 0
BITMAP
90
90
90
70
10
60
ENDCHAR
STARTCHAR afii10038
ENCODING 1060
SWIDTH 480 0
DWIDTH 5 0
BBX 5 8 0 -1
BITMAP
20
70
A8
A8
A8
A8
70
20
ENDCHAR
STARTCHAR afii10039
ENCODING 1061
SWIDTH 480 0
DWIDTH 5 0
BBX 4 6 1 0
BITMAP
90
90
60
90
90
90
ENDCHAR
STARTCHAR afii10040
ENCODING 1062
SWIDTH 480 0
DWIDTH 5 0
BBX 4 7 1 -1
BITMAP
A0
A0
A0
A0
A0
F0
10
ENDCHAR
STARTCHAR afii10041
ENCODING 1063
SWIDTH 480 0
DWIDTH 5 0
BBX 4 6 0 0
BITMAP
90
90
70
10
10
10
ENDCHAR
STARTCHAR afii10042
ENCODING 1064
SWIDTH 480 0
DWIDTH 5 0
BBX 5 6 0 0
BITMAP
A8
A8
A8
A8
A8
F0
ENDCHAR
STARTCHAR afii10043
ENCODING 1065
SWIDTH 480 0
DWIDTH 5 0
BBX 6 7 0 -1
BITMAP
A8
A8
A8
A8
A8
FC
04
ENDCHAR
STARTCHAR afii10044
ENCODING 1066
SWIDTH 480 0
DWIDTH 5 0
BBX 4 6 0 0
BITMAP
C0
40
40
60
50
60
ENDCHAR
STARTCHAR afii10045
ENCODING 1067
SWIDTH 480 0
DWIDTH 5 0
BBX 4 6 1 0
BITMAP
90
90
90
D0
B0
D0
ENDCHAR
STARTCHAR afii10046
ENCODING 1068
SWIDTH 480 0
DWIDTH 5 0
BBX 4 6 1 0
BITMAP
80
80
80
E0
90
E0
ENDCHAR
STARTCHAR afii10047
ENCODING 1069
SWIDTH 480 0
DWIDTH 5 0
BBX 4 6 1 0
BITMAP
60
90
30
10
90
60
ENDCHAR
STARTCHAR afii10048
ENCODING 1070
SWIDTH 480 0
DWIDTH 5 0
BBX 5 6 1 0
BITMAP
90
A8
E8
A8
A8
90
ENDCHAR
STARTCHAR afii10049
ENCODING 1071
SWIDTH 480 0
DWIDTH 5 0
BBX 4 6 1 0
BITMAP
70
90
90
70
90
90
ENDCHAR
STARTCHAR afii10065
ENCODING 1072
SWIDTH 480 0
DWIDTH 5 0
BBX 4 5 1 0
BITMAP
70
90
90
B0
50
ENDCHAR
STARTCHAR afii10066
ENCODING 1073
SWIDTH 480 0
DWIDTH 5 0
BBX 4 7 1 0
BITMAP
10
60
80
E0
90
90
E0
ENDCHAR
STARTCHAR afii10067
ENCODING 1074
SWIDTH 480 0
DWIDTH 5 0
BBX 4 5 1 0
BITMAP
E0
90
E0
90
E0
ENDCHAR
STARTCHAR afii10068
ENCODING 1075
SWIDTH 480 0
DWIDTH 5 0
BBX 4 5 1 0
BITMAP
F0
80
80
80
80
ENDCHAR
STARTCHAR afii10069
ENCODING 1076
SWIDTH 480 0
DWIDTH 5 0
BBX 5 7 0 -1
BITMAP
30
50
50
50
50
F8
88
ENDCHAR
STARTCHAR afii10070
ENCODING 1077
SWIDTH 480 0
DWIDTH 5 0
BBX 4 5 1 0
BITMAP
60
90
F0
80
70
ENDCHAR
STARTCHAR afii10072
ENCODING 1078
SWIDTH 480 0
DWIDTH 5 0
BBX 5 5 0 0
BITMAP
A8
A8
70
A8
A8
ENDCHAR
STARTCHAR afii10073
ENCODING 1079
SWIDTH 480 0
DWIDTH 5 0
BBX 4 5 1 0
BITMAP
60
90
20
90
60
ENDCHAR
STARTCHAR afii10074
ENCODING 1080
SWIDTH 480 0
DWIDTH 5 0
BBX 4 5 1 0
BITMAP
90
B0
F0
D0
90
ENDCHAR
STARTCHAR afii10075
ENCODING 1081
SWIDTH 480 0
DWIDTH 5 0
BBX 4 7 1 0
BITMAP
50
20
90
B0
F0
D0
90
ENDCHAR
STARTCHAR afii10076
ENCODING 1082
SWIDTH 480 0
DWIDTH 5 0
BBX 4 5 1 0
BITMAP
90
A0
E0
90
90
ENDCHAR
STARTCHAR afii10077
ENCODING 1083
SWIDTH 480 0
DWIDTH 5 0
BBX 4 5 1 0
BITMAP
30
50
50
50
90
ENDCHAR
STARTCHAR afii10078
ENCODING 1084
SWIDTH 480 0
DWIDTH 5 0
BBX 4 5 1 0
BITMAP
90
F0
90
90
90
ENDCHAR
STARTCHAR afii10079
ENCODING 1085
SWIDTH 480 0
DWIDTH 5 0
BBX 4 5 1 0
BITMAP
90
90
F0
90
90
ENDCHAR
STARTCHAR afii10080
ENCODING 1086
SWIDTH 480 0
DWIDTH 5 0
BBX 4 5 1 0
BITMAP
60
90
90
90
60
ENDCHAR
STARTCHAR afii10081
ENCODING 1087
SWIDTH 480 0
DWIDTH 5 0
BBX 4 5 1 0
BITMAP
F0
90
90
90
90
ENDCHAR
STARTCHAR afii10082
ENCODING 1088
SWIDTH 480 0
DWIDTH 5 0
BBX 4 7 1 -2
BITMAP
E0
90
90
90
E0
80
80
ENDCHAR
STARTCHAR afii10083
ENCODING 1089
SWIDTH 480 0
DWIDTH 5 0
BBX 4 5 1 0
BITMAP
70
80
80
80
70
ENDCHAR
STARTCHAR afii10084
ENCODING 1090
SWIDTH 480 0
DWIDTH 5 0
BBX 3 5 2 0
BITMAP
E0
40
40
40
40
ENDCHAR
STARTCHAR afii10085
ENCODING 1091
SWIDTH 480 0
DWIDTH 5 0
BBX 4 7 1 -2
BITMAP
90
90
90
90
70
10
60
ENDCHAR
STARTCHAR afii10086
ENCODING 1092
SWIDTH 480 0
DWIDTH 5 0
BBX 5 7 0 -1
BITMAP
20
70
A8
A8
A8
70
20
ENDCHAR
STARTCHAR afii10087
ENCODING 1093
SWIDTH 480 0
DWIDTH 5 0
BBX 4 5 1 0
BITMAP
90
90
60
90
90
ENDCHAR
STARTCHAR afii10088
ENCODING 1094
SWIDTH 480 0
DWIDTH 5 0
BBX 4 6 1 -1
BITMAP
A0
A0
A0
A0
F0
10
ENDCHAR
STARTCHAR afii10089
ENCODING 1095
SWIDTH 480 0
DWIDTH 5 0
BBX 4 5 0 0
BITMAP
90
90
70
10
10
ENDCHAR
STARTCHAR afii10090
ENCODING 1096
SWIDTH 480 0
DWIDTH 5 0
BBX 5 5 0 0
BITMAP
A8
A8
A8
A8
F0
ENDCHAR
STARTCHAR afii10091
ENCODING 1097
SWIDTH 480 0
DWIDTH 5 0
BBX 6 6 0 -1
BITMAP
A8
A8
A8
A8
FC
04
ENDCHAR
STARTCHAR afii10092
ENCODING 1098
SWIDTH 480 0
DWIDTH 5 0
BBX 4 5 1 0
BITMAP
C0
40
60
50
60
ENDCHAR
STARTCHAR afii10093
ENCODING 1099
SWIDTH 480 0
DWIDTH 5 0
BBX 4 5 1 0
BITMAP
90
90
D0
B0
D0
ENDCHAR
STARTCHAR afii10094
ENCODING 1100
SWIDTH 480 0
DWIDTH 5 0
BBX 4 5 1 0
BITMAP
80
80
E0
90
E0
ENDCHAR
STARTCHAR afii10095
ENCODING 1101
SWIDTH 480 0
DWIDTH 5 0
BBX 4 5 1 0
BITMAP
60
90
30
90
60
ENDCHAR
STARTCHAR afii10096
ENCODING 1102
SWIDTH 480 0
DWIDTH 5 0
BBX 5 5 1 0
BITMAP
90
A8
E8
A8
90
ENDCHAR
STARTCHAR afii10097
ENCODING 1103
SWIDTH 480 0
DWIDTH 5 0
BBX 4 5 1 0
BITMAP
70
90
70
90
90
ENDCHAR
STARTCHAR afii10071
ENCODING 1105
SWIDTH 480 0
DWIDTH 5 0
BBX 4 7 1 0
BITMAP
A0
00
60
90
F0
80
70
ENDCHAR
STARTCHAR afii10099
ENCODING 1106
SWIDTH 480 0
DWIDTH 5 0
BBX 5 7 0 -1
BITMAP
40
E0
40
70
48
48
10
ENDCHAR
STARTCHAR afii10100
ENCODING 1107
SWIDTH 480 0
DWIDTH 5 0
BBX 4 7 1 0
BITMAP
20
40
F0
80
80
80
80
ENDCHAR
STARTCHAR afii10101
ENCODING 1108
SWIDTH 480 0
DWIDTH 5 0
BBX 4 5 0 0
BITMAP
60
90
C0
90
60
ENDCHAR
STARTCHAR afii10102
ENCODING 1109
SWIDTH 480 0
DWIDTH 5 0
BBX 4 5 1 0
BITMAP
70
80
60
10
E0
ENDCHAR
STARTCHAR afii10103
ENCODING 1110
SWIDTH 480 0
DWIDTH 5 0
BBX 2 7 2 0
BITMAP
40
00
C0
40
40
40
40
ENDCHAR
STARTCHAR afii10104
ENCODING 1111
SWIDTH 480 0
DWIDTH 5 0
BBX 3 7 2 0
BITMAP
A0
00
C0
40
40
40
40
ENDCHAR
STARTCHAR afii10105
ENCODING 1112
SWIDTH 480 0
DWIDTH 5 0
BBX 3 9 1 -2
BITMAP
20
00
60
20
20
20
20
20
C0
ENDCHAR
STARTCHAR afii10110
ENCODING 1118
SWIDTH 480 0
DWIDTH 5 0
BBX 4 7 1 -2
BITMAP
90
90
90
90
70
10
60
ENDCHAR
STARTCHAR afii10050
ENCODING 1168
SWIDTH 480 0
DWIDTH 5 0
BBX 4 7 1 0
BITMAP
10
F0
80
80
80
80
80
ENDCHAR
STARTCHAR afii10098
ENCODING 1169
SWIDTH 480 0
DWIDTH 5 0
BBX 4 6 1 0
BITMAP
10
F0
80
80
80
80
ENDCHAR
STARTCHAR uni07C0
ENCODING 1984
SWIDTH 480 0
DWIDTH 5 0
BBX 6 2 0 -1
BITMAP
FC
FC
ENDCHAR
STARTCHAR uni07C1
ENCODING 1985
SWIDTH 480 0
DWIDTH 5 0
BBX 6 2 0 -1
BITMAP
A8
54
ENDCHAR
STARTCHAR uni07C2
ENCODING 1986
SWIDTH 480 0
DWIDTH 5 0
BBX 6 1 0 -1
BITMAP
FC
ENDCHAR
STARTCHAR uni07C3
ENCODING 1987
SWIDTH 480 0
DWIDTH 5 0
BBX 5 1 2 -1
BITMAP
A8
ENDCHAR
STARTCHAR uni0CA0
ENCODING 3232
SWIDTH 480 0
DWIDTH 5 0
BBX 6 7 0 0
BITMAP
18
04
F8
44
54
44
38
ENDCHAR
STARTCHAR uni1F00
ENCODING 7936
SWIDTH 480 0
DWIDTH 5 0
BBX 5 7 0 0
BITMAP
40
80
38
48
48
58
28
ENDCHAR
STARTCHAR uni1F08
ENCODING 7944
SWIDTH 480 0
DWIDTH 5 0
BBX 5 8 0 0
BITMAP
40
80
30
48
48
78
48
48
ENDCHAR
STARTCHAR quoteleft
ENCODING 8216
SWIDTH 480 0
DWIDTH 5 0
BBX 1 3 2 4
BITMAP
80
80
80
ENDCHAR
STARTCHAR quoteright
ENCODING 8217
SWIDTH 480 0
DWIDTH 5 0
BBX 1 3 2 4
BITMAP
80
80
80
ENDCHAR
STARTCHAR quotesinglbase
ENCODING 8218
SWIDTH 480 0
DWIDTH 5 0
BBX 2 3 2 -1
BITMAP
40
40
80
ENDCHAR
STARTCHAR quotedblleft
ENCODING 8220
SWIDTH 480 0
DWIDTH 5 0
BBX 4 3 1 3
BITMAP
50
A0
F0
ENDCHAR
STARTCHAR quotedblright
ENCODING 8221
SWIDTH 480 0
DWIDTH 5 0
BBX 4 3 1 3
BITMAP
F0
50
A0
ENDCHAR
STARTCHAR quotedblbase
ENCODING 8222
SWIDTH 480 0
DWIDTH 5 0
BBX 4 3 1 -1
BITMAP
F0
50
A0
ENDCHAR
STARTCHAR uni201F
ENCODING 8223
SWIDTH 480 0
DWIDTH 5 0
BBX 4 3 1 3
BITMAP
F0
A0
50
ENDCHAR
STARTCHAR onedotenleader
ENCODING 8228
SWIDTH 480 0
DWIDTH 5 0
BBX 1 1 2 0
BITMAP
80
ENDCHAR
STARTCHAR twodotenleader
ENCODING 8229
SWIDTH 480 0
DWIDTH 5 0
BBX 3 1 1 0
BITMAP
A0
ENDCHAR
STARTCHAR ellipsis
ENCODING 8230
SWIDTH 480 0
DWIDTH 5 0
BBX 5 1 1 0
BITMAP
A8
ENDCHAR
STARTCHAR uni2027
ENCODING 8231
SWIDTH 480 0
DWIDTH 5 0
BBX 1 1 2 2
BITMAP
80
ENDCHAR
STARTCHAR Euro
ENCODING 8364
SWIDTH 480 0
DWIDTH 5 0
BBX 5 7 0 0
BITMAP
30
48
E0
40
E0
48
30
ENDCHAR
STARTCHAR trademark
ENCODING 8482
SWIDTH 480 0
DWIDTH 5 0
BBX 6 3 0 2
BITMAP
F4
5C
54
ENDCHAR
STARTCHAR arrowleft
ENCODING 8592
SWIDTH 480 0
DWIDTH 5 0
BBX 6 5 0 0
BITMAP
20
60
FC
60
20
ENDCHAR
STARTCHAR arrowup
ENCODING 8593
SWIDTH 480 0
DWIDTH 5 0
BBX 5 6 0 0
BITMAP
20
70
F8
20
20
20
ENDCHAR
STARTCHAR arrowright
ENCODING 8594
SWIDTH 480 0
DWIDTH 5 0
BBX 6 5 0 0
BITMAP
10
18
FC
18
10
ENDCHAR
STARTCHAR arrowdown
ENCODING 8595
SWIDTH 480 0
DWIDTH 5 0
BBX 5 6 0 0
BITMAP
20
20
20
F8
70
20
ENDCHAR
STARTCHAR arrowboth
ENCODING 8596
SWIDTH 480 0
DWIDTH 5 0
BBX 6 3 0 1
BITMAP
48
FC
48
ENDCHAR
STARTCHAR arrowupdn
ENCODING 8597
SWIDTH 480 0
DWIDTH 5 0
BBX 5 8 0 -1
BITMAP
20
70
F8
20
20
F8
70
20
ENDCHAR
STARTCHAR uni2196
ENCODING 8598
SWIDTH 480 0
DWIDTH 5 0
BBX 4 4 0 1
BITMAP
E0
C0
A0
10
ENDCHAR
STARTCHAR uni2197
ENCODING 8599
SWIDTH 480 0
DWIDTH 5 0
BBX 4 4 1 1
BITMAP
70
30
50
80
ENDCHAR
STARTCHAR uni2198
ENCODING 8600
SWIDTH 480 0
DWIDTH 5 0
BBX 4 4 1 0
BITMAP
80
50
30
70
ENDCHAR
STARTCHAR uni2199
ENCODING 8601
SWIDTH 480 0
DWIDTH 5 0
BBX 4 4 0 0
BITMAP
10
A0
C0
E0
ENDCHAR
STARTCHAR uni21B0
ENCODING 8624
SWIDTH 480 0
DWIDTH 5 0
BBX 4 5 0 0
BITMAP
40
F0
50
10
10
ENDCHAR
STARTCHAR uni21B1
ENCODING 8625
SWIDTH 480 0
DWIDTH 5 0
BBX 4 5 0 0
BITMAP
20
F0
A0
80
80
ENDCHAR
STARTCHAR uni21B2
ENCODING 8626
SWIDTH 480 0
DWIDTH 5 0
BBX 4 5 0 -1
BITMAP
10
10
50
F0
40
ENDCHAR
STARTCHAR uni21B3
ENCODING 8627
SWIDTH 480 0
DWIDTH 5 0
BBX 4 5 0 -1
BITMAP
80
80
A0
F0
20
ENDCHAR
STARTCHAR uni21B4
ENCODING 8628
SWIDTH 480 0
DWIDTH 5 0
BBX 4 4 0 -1
BITMAP
E0
20
70
20
ENDCHAR
STARTCHAR carriagereturn
ENCODING 8629
SWIDTH 480 0
DWIDTH 5 0
BBX 4 5 0 -1
BITMAP
10
10
50
F0
40
ENDCHAR
STARTCHAR uni21B6
ENCODING 8630
SWIDTH 480 0
DWIDTH 5 0
BBX 4 5 0 0
BITMAP
20
50
40
E0
40
ENDCHAR
STARTCHAR uni21B7
ENCODING 8631
SWIDTH 480 0
DWIDTH 5 0
BBX 4 5 1 0
BITMAP
40
A0
20
70
20
ENDCHAR
STARTCHAR uni21F1
ENCODING 8689
SWIDTH 480 0
DWIDTH 5 0
BBX 6 6 0 0
BITMAP
F8
80
B8
B0
A8
04
ENDCHAR
STARTCHAR uni21F2
ENCODING 8690
SWIDTH 480 0
DWIDTH 5 0
BBX 6 6 1 -1
BITMAP
80
54
34
74
04
7C
ENDCHAR
STARTCHAR uni21F5
ENCODING 8693
SWIDTH 480 0
DWIDTH 5 0
BBX 6 6 0 0
BITMAP
48
E8
48
48
5C
48
ENDCHAR
STARTCHAR uni21F6
ENCODING 8694
SWIDTH 480 0
DWIDTH 5 0
BBX 5 7 1 -1
BITMAP
10
F8
10
F8
10
F8
10
ENDCHAR
STARTCHAR uni21F7
ENCODING 8695
SWIDTH 480 0
DWIDTH 5 0
BBX 6 3 0 0
BITMAP
50
FC
50
ENDCHAR
STARTCHAR uni21F8
ENCODING 8696
SWIDTH 480 0
DWIDTH 5 0
BBX 6 3 0 0
BITMAP
28
FC
28
ENDCHAR
STARTCHAR uni21FD
ENCODING 8701
SWIDTH 480 0
DWIDTH 5 0
BBX 6 3 0 1
BITMAP
40
BC
40
ENDCHAR
STARTCHAR uni21FE
ENCODING 8702
SWIDTH 480 0
DWIDTH 5 0
BBX 6 3 0 1
BITMAP
08
F4
08
ENDCHAR
STARTCHAR uni21FF
ENCODING 8703
SWIDTH 480 0
DWIDTH 5 0
BBX 6 3 0 1
BITMAP
48
B4
48
ENDCHAR
STARTCHAR universal
ENCODING 8704
SWIDTH 480 0
DWIDTH 5 0
BBX 5 6 1 -1
BITMAP
88
88
70
50
20
20
ENDCHAR
STARTCHAR uni2201
ENCODING 8705
SWIDTH 480 0
DWIDTH 5 0
BBX 5 7 1 -1
BITMAP
70
88
88
80
88
88
70
ENDCHAR
STARTCHAR partialdiff
ENCODING 8706
SWIDTH 480 0
DWIDTH 5 0
BBX 4 7 1 0
BITMAP
80
40
20
50
90
90
60
ENDCHAR
STARTCHAR existential
ENCODING 8707
SWIDTH 480 0
DWIDTH 5 0
BBX 5 6 1 0
BITMAP
F8
08
78
08
08
F8
ENDCHAR
STARTCHAR uni2204
ENCODING 8708
SWIDTH 480 0
DWIDTH 5 0
BBX 5 8 1 -1
BITMAP
10
F8
28
78
28
48
F8
40
ENDCHAR
STARTCHAR emptyset
ENCODING 8709
SWIDTH 480 0
DWIDTH 5 0
BBX 7 6 0 0
BITMAP
38
46
4C
74
C4
38
ENDCHAR
STARTCHAR uni2206
ENCODING 8710
SWIDTH 480 0
DWIDTH 5 0
BBX 5 5 1 0
BITMAP
20
50
50
88
F8
ENDCHAR
STARTCHAR gradient
ENCODING 8711
SWIDTH 480 0
DWIDTH 5 0
BBX 5 5 1 0
BITMAP
F8
88
50
50
20
ENDCHAR
STARTCHAR element
ENCODING 8712
SWIDTH 480 0
DWIDTH 5 0
BBX 5 7 1 -1
BITMAP
38
40
80
F0
80
40
38
ENDCHAR
STARTCHAR notelement
ENCODING 8713
SWIDTH 480 0
DWIDTH 5 0
BBX 5 8 1 -1
BITMAP
08
38
50
A0
F0
A0
40
78
ENDCHAR
STARTCHAR uni220A
ENCODING 8714
SWIDTH 480 0
DWIDTH 5 0
BBX 4 5 1 0
BITMAP
70
80
E0
80
70
ENDCHAR
STARTCHAR suchthat
ENCODING 8715
SWIDTH 480 0
DWIDTH 5 0
BBX 5 7 1 -1
BITMAP
E0
10
08
78
08
10
E0
ENDCHAR
STARTCHAR uni220C
ENCODING 8716
SWIDTH 480 0
DWIDTH 5 0
BBX 6 8 0 -1
BITMAP
80
70
48
24
3C
14
08
74
ENDCHAR
STARTCHAR uni220D
ENCODING 8717
SWIDTH 480 0
DWIDTH 5 0
BBX 4 5 2 0
BITMAP
E0
10
70
10
E0
ENDCHAR
STARTCHAR product
ENCODING 8719
SWIDTH 480 0
DWIDTH 5 0
BBX 5 5 1 0
BITMAP
F8
50
50
50
50
ENDCHAR
STARTCHAR uni2210
ENCODING 8720
SWIDTH 480 0
DWIDTH 5 0
BBX 5 5 1 0
BITMAP
50
50
50
50
F8
ENDCHAR
STARTCHAR summation
ENCODING 8721
SWIDTH 480 0
DWIDTH 5 0
BBX 5 7 0 -1
BITMAP
F8
88
40
20
40
88
F8
ENDCHAR
STARTCHAR minus
ENCODING 8722
SWIDTH 480 0
DWIDTH 5 0
BBX 3 1 0 2
BITMAP
E0
ENDCHAR
STARTCHAR uni2213
ENCODING 8723
SWIDTH 480 0
DWIDTH 5 0
BBX 3 5 0 -1
BITMAP
E0
00
40
E0
40
ENDCHAR
STARTCHAR uni2214
ENCODING 8724
SWIDTH 480 0
DWIDTH 5 0
BBX 5 8 0 -1
BITMAP
20
70
20
20
20
F8
20
20
ENDCHAR
STARTCHAR radical
ENCODING 8730
SWIDTH 480 0
DWIDTH 5 0
BBX 7 7 0 -1
BITMAP
02
02
04
C4
28
28
10
ENDCHAR
STARTCHAR uni221B
ENCODING 8731
SWIDTH 480 0
DWIDTH 5 0
BBX 7 8 0 -1
BITMAP
30
32
12
34
C4
28
28
10
ENDCHAR
STARTCHAR uni221C
ENCODING 8732
SWIDTH 480 0
DWIDTH 5 0
BBX 7 7 0 -1
BITMAP
12
32
14
C4
28
28
10
ENDCHAR
STARTCHAR proportional
ENCODING 8733
SWIDTH 480 0
DWIDTH 5 0
BBX 4 3 0 1
BITMAP
D0
A0
D0
ENDCHAR
STARTCHAR infinity
ENCODING 8734
SWIDTH 480 0
DWIDTH 5 0
BBX 6 4 0 0
BITMAP
48
B4
B4
48
ENDCHAR
STARTCHAR approxequal
ENCODING 8776
SWIDTH 480 0
DWIDTH 5 0
BBX 5 5 0 0
BITMAP
08
70
88
70
80
ENDCHAR
STARTCHAR uni2256
ENCODING 8790
SWIDTH 480 0
DWIDTH 5 0
BBX 5 3 0 1
BITMAP
F8
50
F8
ENDCHAR
STARTCHAR notequal
ENCODING 8800
SWIDTH 480 0
DWIDTH 5 0
BBX 3 5 2 1
BITMAP
20
E0
40
E0
80
ENDCHAR
STARTCHAR lessequal
ENCODING 8804
SWIDTH 480 0
DWIDTH 5 0
BBX 4 7 1 -1
BITMAP
20
40
80
40
20
00
F0
ENDCHAR
STARTCHAR greaterequal
ENCODING 8805
SWIDTH 480 0
DWIDTH 5 0
BBX 4 7 1 -1
BITMAP
40
20
10
20
40
00
F0
ENDCHAR
STARTCHAR uni2312
ENCODING 8978
SWIDTH 480 0
DWIDTH 5 0
BBX 4 2 0 2
BITMAP
60
90
ENDCHAR
STARTCHAR uni2322
ENCODING 8994
SWIDTH 480 0
DWIDTH 5 0
BBX 5 2 0 2
BITMAP
70
88
ENDCHAR
STARTCHAR block
ENCODING 9608
SWIDTH 480 0
DWIDTH 5 0
BBX 5 8 1 -1
BITMAP
F8
F8
F8
F8
F8
F8
F8
F8
ENDCHAR
STARTCHAR uni2596
ENCODING 9622
SWIDTH 480 0
DWIDTH 5 0
BBX 3 3 0 0
BITMAP
E0
E0
E0
ENDCHAR
STARTCHAR uni2597
ENCODING 9623
SWIDTH 480 0
DWIDTH 5 0
BBX 3 3 3 0
BITMAP
E0
E0
E0
ENDCHAR
STARTCHAR uni2598
ENCODING 9624
SWIDTH 480 0
DWIDTH 5 0
BBX 3 3 0 3
BITMAP
E0
E0
E0
ENDCHAR
STARTCHAR uni2599
ENCODING 9625
SWIDTH 480 0
DWIDTH 5 0
BBX 6 6 0 0
BITMAP
E0
E0
E0
FC
FC
FC
ENDCHAR
STARTCHAR uni259A
ENCODING 9626
SWIDTH 480 0
DWIDTH 5 0
BBX 6 6 0 0
BITMAP
E0
E0
E0
1C
1C
1C
ENDCHAR
STARTCHAR uni259B
ENCODING 9627
SWIDTH 480 0
DWIDTH 5 0
BBX 6 6 0 0
BITMAP
FC
FC
FC
E0
E0
E0
ENDCHAR
STARTCHAR uni259C
ENCODING 9628
SWIDTH 480 0
DWIDTH 5 0
BBX 6 6 0 0
BITMAP
FC
FC
FC
1C
1C
1C
ENDCHAR
STARTCHAR uni259D
ENCODING 9629
SWIDTH 480 0
DWIDTH 5 0
BBX 3 3 3 3
BITMAP
E0
E0
E0
ENDCHAR
STARTCHAR uni259E
ENCODING 9630
SWIDTH 480 0
DWIDTH 5 0
BBX 6 6 0 0
BITMAP
1C
1C
1C
E0
E0
E0
ENDCHAR
STARTCHAR uni259F
ENCODING 9631
SWIDTH 480 0
DWIDTH 5 0
BBX 6 6 0 0
BITMAP
1C
1C
1C
FC
FC
FC
ENDCHAR
STARTCHAR filledbox
ENCODING 9632
SWIDTH 480 0
DWIDTH 5 0
BBX 6 6 0 0
BITMAP
FC
FC
FC
FC
FC
FC
ENDCHAR
STARTCHAR H22073
ENCODING 9633
SWIDTH 480 0
DWIDTH 5 0
BBX 6 6 0 0
BITMAP
FC
84
84
84
84
FC
ENDCHAR
STARTCHAR uni25A2
ENCODING 9634
SWIDTH 480 0
DWIDTH 5 0
BBX 6 6 0 0
BITMAP
78
84
84
84
84
78
ENDCHAR
STARTCHAR uni25A3
ENCODING 9635
SWIDTH 480 0
DWIDTH 5 0
BBX 5 5 0 0
BITMAP
F8
88
A8
88
F8
ENDCHAR
STARTCHAR uni25A4
ENCODING 9636
SWIDTH 480 0
DWIDTH 5 0
BBX 5 5 0 0
BITMAP
F8
88
F8
88
F8
ENDCHAR
STARTCHAR uni25A5
ENCODING 9637
SWIDTH 480 0
DWIDTH 5 0
BBX 5 5 0 0
BITMAP
F8
A8
A8
A8
F8
ENDCHAR
STARTCHAR uni25A6
ENCODING 9638
SWIDTH 480 0
DWIDTH 5 0
BBX 5 5 0 0
BITMAP
F8
A8
F8
A8
F8
ENDCHAR
STARTCHAR uni25A7
ENCODING 9639
SWIDTH 480 0
DWIDTH 5 0
BBX 5 5 0 0
BITMAP
F8
C8
A8
98
F8
ENDCHAR
STARTCHAR uni25A8
ENCODING 9640
SWIDTH 480 0
DWIDTH 5 0
BBX 5 5 0 0
BITMAP
F8
98
A8
C8
F8
ENDCHAR
STARTCHAR uni25A9
ENCODING 9641
SWIDTH 480 0
DWIDTH 5 0
BBX 5 5 0 0
BITMAP
F8
A8
D8
A8
F8
ENDCHAR
STARTCHAR H18543
ENCODING 9642
SWIDTH 480 0
DWIDTH 5 0
BBX 5 5 0 0
BITMAP
F8
F8
F8
F8
F8
ENDCHAR
STARTCHAR H18551
ENCODING 9643
SWIDTH 480 0
DWIDTH 5 0
BBX 5 5 0 0
BITMAP
F8
88
88
88
F8
ENDCHAR
STARTCHAR filledrect
ENCODING 9644
SWIDTH 480 0
DWIDTH 5 0
BBX 5 3 0 0
BITMAP
F8
F8
F8
ENDCHAR
STARTCHAR uni25AD
ENCODING 9645
SWIDTH 480 0
DWIDTH 5 0
BBX 5 3 0 0
BITMAP
F8
88
F8
ENDCHAR
STARTCHAR uni25AE
ENCODING 9646
SWIDTH 480 0
DWIDTH 5 0
BBX 4 7 0 0
BITMAP
F0
F0
F0
F0
F0
F0
F0
ENDCHAR
STARTCHAR uni25AF
ENCODING 9647
SWIDTH 480 0
DWIDTH 5 0
BBX 4 7 0 0
BITMAP
F0
90
90
90
90
90
F0
ENDCHAR
STARTCHAR uni25B0
ENCODING 9648
SWIDTH 480 0
DWIDTH 5 0
BBX 6 3 0 0
BITMAP
7C
FC
F8
ENDCHAR
STARTCHAR uni25B1
ENCODING 9649
SWIDTH 480 0
DWIDTH 5 0
BBX 6 3 0 0
BITMAP
7C
84
F8
ENDCHAR
STARTCHAR triagup
ENCODING 9650
SWIDTH 480 0
DWIDTH 5 0
BBX 7 4 1 1
BITMAP
10
38
7C
FE
ENDCHAR
STARTCHAR uni25B3
ENCODING 9651
SWIDTH 480 0
DWIDTH 5 0
BBX 7 4 1 1
BITMAP
10
28
44
FE
ENDCHAR
STARTCHAR uni25B4
ENCODING 9652
SWIDTH 480 0
DWIDTH 5 0
BBX 5 3 0 1
BITMAP
20
70
F8
ENDCHAR
STARTCHAR uni25B5
ENCODING 9653
SWIDTH 480 0
DWIDTH 5 0
BBX 5 3 0 1
BITMAP
20
50
F8
ENDCHAR
STARTCHAR uni25B6
ENCODING 9654
SWIDTH 480 0
DWIDTH 5 0
BBX 4 7 1 -1
BITMAP
80
C0
E0
F0
E0
C0
80
ENDCHAR
STARTCHAR uni25B7
ENCODING 9655
SWIDTH 480 0
DWIDTH 5 0
BBX 4 7 1 -1
BITMAP
80
C0
A0
90
A0
C0
80
ENDCHAR
STARTCHAR uni25B8
ENCODING 9656
SWIDTH 480 0
DWIDTH 5 0
BBX 3 5 1 0
BITMAP
80
C0
E0
C0
80
ENDCHAR
STARTCHAR uni25B9
ENCODING 9657
SWIDTH 480 0
DWIDTH 5 0
BBX 3 5 1 0
BITMAP
80
C0
A0
C0
80
ENDCHAR
STARTCHAR triagrt
ENCODING 9658
SWIDTH 480 0
DWIDTH 5 0
BBX 7 5 -1 0
BITMAP
C0
F8
FE
F8
C0
ENDCHAR
STARTCHAR uni25BB
ENCODING 9659
SWIDTH 480 0
DWIDTH 5 0
BBX 7 5 -1 0
BITMAP
C0
B8
86
B8
C0
ENDCHAR
STARTCHAR triagdn
ENCODING 9660
SWIDTH 480 0
DWIDTH 5 0
BBX 7 4 1 1
BITMAP
FE
7C
38
10
ENDCHAR
STARTCHAR uni25BD
ENCODING 9661
SWIDTH 480 0
DWIDTH 5 0
BBX 7 4 1 1
BITMAP
FE
44
28
10
ENDCHAR
STARTCHAR uni25BE
ENCODING 9662
SWIDTH 480 0
DWIDTH 5 0
BBX 5 3 0 1
BITMAP
F8
70
20
ENDCHAR
STARTCHAR uni25BF
ENCODING 9663
SWIDTH 480 0
DWIDTH 5 0
BBX 5 3 0 1
BITMAP
F8
50
20
ENDCHAR
STARTCHAR uni25C0
ENCODING 9664
SWIDTH 480 0
DWIDTH 5 0
BBX 4 7 1 -1
BITMAP
10
30
70
F0
70
30
10
ENDCHAR
STARTCHAR uni25C1
ENCODING 9665
SWIDTH 480 0
DWIDTH 5 0
BBX 4 7 1 -1
BITMAP
10
30
50
90
50
30
10
ENDCHAR
STARTCHAR uni25C2
ENCODING 9666
SWIDTH 480 0
DWIDTH 5 0
BBX 3 5 1 0
BITMAP
20
60
E0
60
20
ENDCHAR
STARTCHAR uni25C3
ENCODING 9667
SWIDTH 480 0
DWIDTH 5 0
BBX 3 5 1 0
BITMAP
20
60
A0
60
20
ENDCHAR
STARTCHAR triaglf
ENCODING 9668
SWIDTH 480 0
DWIDTH 5 0
BBX 7 5 -1 0
BITMAP
06
3E
FE
3E
06
ENDCHAR
STARTCHAR uni25C5
ENCODING 9669
SWIDTH 480 0
DWIDTH 5 0
BBX 7 5 -1 0
BITMAP
06
3A
C2
3A
06
ENDCHAR
STARTCHAR uni25C6
ENCODING 9670
SWIDTH 480 0
DWIDTH 5 0
BBX 5 5 0 1
BITMAP
20
70
F8
70
20
ENDCHAR
STARTCHAR uni25C7
ENCODING 9671
SWIDTH 480 0
DWIDTH 5 0
BBX 5 5 0 1
BITMAP
20
50
88
50
20
ENDCHAR
STARTCHAR uni25C8
ENCODING 9672
SWIDTH 480 0
DWIDTH 5 0
BBX 5 5 0 1
BITMAP
20
50
A8
50
20
ENDCHAR
STARTCHAR uni25C9
ENCODING 9673
SWIDTH 480 0
DWIDTH 5 0
BBX 5 5 0 1
BITMAP
70
88
A8
88
70
ENDCHAR
STARTCHAR lozenge
ENCODING 9674
SWIDTH 480 0
DWIDTH 5 0
BBX 5 7 0 0
BITMAP
20
50
50
88
50
50
20
ENDCHAR
STARTCHAR circle
ENCODING 9675
SWIDTH 480 0
DWIDTH 5 0
BBX 5 5 0 1
BITMAP
70
88
88
88
70
ENDCHAR
STARTCHAR uni25CC
ENCODING 9676
SWIDTH 480 0
DWIDTH 5 0
BBX 5 5 0 1
BITMAP
50
88
00
88
50
ENDCHAR
STARTCHAR uni25CD
ENCODING 9677
SWIDTH 480 0
DWIDTH 5 0
BBX 5 5 0 0
BITMAP
70
A8
A8
A8
70
ENDCHAR
STARTCHAR uni25CE
ENCODING 9678
SWIDTH 480 0
DWIDTH 5 0
BBX 5 5 0 0
BITMAP
70
88
A8
88
70
ENDCHAR
STARTCHAR H18533
ENCODING 9679
SWIDTH 480 0
DWIDTH 5 0
BBX 4 4 1 2
BITMAP
60
F0
F0
60
ENDCHAR
STARTCHAR uni25D0
ENCODING 9680
SWIDTH 480 0
DWIDTH 5 0
BBX 4 4 1 2
BITMAP
60
D0
D0
60
ENDCHAR
STARTCHAR uni25D1
ENCODING 9681
SWIDTH 480 0
DWIDTH 5 0
BBX 4 4 1 2
BITMAP
60
B0
B0
60
ENDCHAR
STARTCHAR uni25D2
ENCODING 9682
SWIDTH 480 0
DWIDTH 5 0
BBX 4 4 1 2
BITMAP
60
F0
90
60
ENDCHAR
STARTCHAR uni25D3
ENCODING 9683
SWIDTH 480 0
DWIDTH 5 0
BBX 4 4 1 2
BITMAP
60
90
F0
60
ENDCHAR
STARTCHAR uni25D4
ENCODING 9684
SWIDTH 480 0
DWIDTH 5 0
BBX 4 4 1 2
BITMAP
60
B0
90
60
ENDCHAR
STARTCHAR uni25D5
ENCODING 9685
SWIDTH 480 0
DWIDTH 5 0
BBX 4 4 1 2
BITMAP
60
B0
F0
60
ENDCHAR
STARTCHAR uni25D6
ENCODING 9686
SWIDTH 480 0
DWIDTH 5 0
BBX 2 4 1 2
BITMAP
40
C0
C0
40
ENDCHAR
STARTCHAR uni25D7
ENCODING 9687
SWIDTH 480 0
DWIDTH 5 0
BBX 2 4 3 2
BITMAP
80
C0
C0
80
ENDCHAR
STARTCHAR invbullet
ENCODING 9688
SWIDTH 480 0
DWIDTH 5 0
BBX 6 11 0 -2
BITMAP
FC
FC
FC
FC
CC
84
84
CC
FC
FC
FC
ENDCHAR
STARTCHAR invcircle
ENCODING 9689
SWIDTH 480 0
DWIDTH 5 0
BBX 7 7 -1 0
BITMAP
FE
C6
BA
BA
BA
C6
FE
ENDCHAR
STARTCHAR uni25DA
ENCODING 9690
SWIDTH 480 0
DWIDTH 5 0
BBX 7 4 -1 3
BITMAP
FE
C6
BA
BA
ENDCHAR
STARTCHAR uni25DB
ENCODING 9691
SWIDTH 480 0
DWIDTH 5 0
BBX 7 4 -1 0
BITMAP
BA
BA
C6
FE
ENDCHAR
STARTCHAR uni25DC
ENCODING 9692
SWIDTH 480 0
DWIDTH 5 0
BBX 3 3 0 3
BITMAP
60
80
80
ENDCHAR
STARTCHAR uni25DD
ENCODING 9693
SWIDTH 480 0
DWIDTH 5 0
BBX 3 3 2 3
BITMAP
C0
20
20
ENDCHAR
STARTCHAR uni25DE
ENCODING 9694
SWIDTH 480 0
DWIDTH 5 0
BBX 3 3 2 1
BITMAP
20
20
C0
ENDCHAR
STARTCHAR uni25DF
ENCODING 9695
SWIDTH 480 0
DWIDTH 5 0
BBX 3 3 0 1
BITMAP
80
80
60
ENDCHAR
STARTCHAR uni25E0
ENCODING 9696
SWIDTH 480 0
DWIDTH 5 0
BBX 5 3 0 3
BITMAP
70
88
88
ENDCHAR
STARTCHAR uni25E1
ENCODING 9697
SWIDTH 480 0
DWIDTH 5 0
BBX 6 3 0 1
BITMAP
84
44
38
ENDCHAR
STARTCHAR uni25E2
ENCODING 9698
SWIDTH 480 0
DWIDTH 5 0
BBX 6 6 0 0
BITMAP
04
0C
1C
3C
7C
FC
ENDCHAR
STARTCHAR uni25E3
ENCODING 9699
SWIDTH 480 0
DWIDTH 5 0
BBX 6 6 0 0
BITMAP
80
C0
E0
F0
F8
FC
ENDCHAR
STARTCHAR uni25E4
ENCODING 9700
SWIDTH 480 0
DWIDTH 5 0
BBX 6 6 0 0
BITMAP
FC
F8
F0
E0
C0
80
ENDCHAR
STARTCHAR uni25E5
ENCODING 9701
SWIDTH 480 0
DWIDTH 5 0
BBX 6 6 0 0
BITMAP
FC
7C
3C
1C
0C
04
ENDCHAR
STARTCHAR openbullet
ENCODING 9702
SWIDTH 480 0
DWIDTH 5 0
BBX 5 5 0 1
BITMAP
70
88
88
88
70
ENDCHAR
STARTCHAR uni25E7
ENCODING 9703
SWIDTH 480 0
DWIDTH 5 0
BBX 5 5 0 0
BITMAP
F8
C8
C8
C8
F8
ENDCHAR
STARTCHAR uni25E8
ENCODING 9704
SWIDTH 480 0
DWIDTH 5 0
BBX 5 5 0 0
BITMAP
F8
98
98
98
F8
ENDCHAR
STARTCHAR uni25E9
ENCODING 9705
SWIDTH 480 0
DWIDTH 5 0
BBX 5 5 0 0
BITMAP
F8
E8
C8
88
F8
ENDCHAR
STARTCHAR uni25EA
ENCODING 9706
SWIDTH 480 0
DWIDTH 5 0
BBX 5 5 0 0
BITMAP
F8
88
98
B8
F8
ENDCHAR
STARTCHAR uni25EB
ENCODING 9707
SWIDTH 480 0
DWIDTH 5 0
BBX 5 5 0 0
BITMAP
F8
A8
A8
A8
F8
ENDCHAR
STARTCHAR uni25EC
ENCODING 9708
SWIDTH 480 0
DWIDTH 5 0
BBX 5 7 0 0
BITMAP
20
20
50
50
A8
88
F8
ENDCHAR
STARTCHAR uni25ED
ENCODING 9709
SWIDTH 480 0
DWIDTH 5 0
BBX 5 6 0 0
BITMAP
20
20
70
70
E8
F8
ENDCHAR
STARTCHAR uni25EE
ENCODING 9710
SWIDTH 480 0
DWIDTH 5 0
BBX 5 6 0 0
BITMAP
20
20
70
70
B8
F8
ENDCHAR
STARTCHAR uni25EF
ENCODING 9711
SWIDTH 480 0
DWIDTH 5 0
BBX 5 5 0 0
BITMAP
70
88
88
88
70
ENDCHAR
STARTCHAR uni25F0
ENCODING 9712
SWIDTH 480 0
DWIDTH 5 0
BBX 5 5 0 0
BITMAP
F8
A8
E8
88
F8
ENDCHAR
STARTCHAR uni25F1
ENCODING 9713
SWIDTH 480 0
DWIDTH 5 0
BBX 5 5 0 0
BITMAP
F8
88
E8
A8
F8
ENDCHAR
STARTCHAR uni25F2
ENCODING 9714
SWIDTH 480 0
DWIDTH 5 0
BBX 5 5 0 0
BITMAP
F8
88
B8
A8
F8
ENDCHAR
STARTCHAR uni25F3
ENCODING 9715
SWIDTH 480 0
DWIDTH 5 0
BBX 5 5 0 0
BITMAP
F8
A8
B8
88
F8
ENDCHAR
STARTCHAR uni25F4
ENCODING 9716
SWIDTH 480 0
DWIDTH 5 0
BBX 5 5 0 0
BITMAP
70
A8
E8
88
70
ENDCHAR
STARTCHAR uni25F5
ENCODING 9717
SWIDTH 480 0
DWIDTH 5 0
BBX 5 5 0 0
BITMAP
70
88
E8
A8
70
ENDCHAR
STARTCHAR uni25F6
ENCODING 9718
SWIDTH 480 0
DWIDTH 5 0
BBX 5 5 0 0
BITMAP
70
88
B8
A8
70
ENDCHAR
STARTCHAR uni25F7
ENCODING 9719
SWIDTH 480 0
DWIDTH 5 0
BBX 5 5 0 0
BITMAP
70
A8
B8
88
70
ENDCHAR
STARTCHAR uni25F8
ENCODING 9720
SWIDTH 480 0
DWIDTH 5 0
BBX 4 4 0 3
BITMAP
F0
A0
C0
80
ENDCHAR
STARTCHAR uni25F9
ENCODING 9721
SWIDTH 480 0
DWIDTH 5 0
BBX 4 4 2 3
BITMAP
F0
50
30
10
ENDCHAR
STARTCHAR uni25FA
ENCODING 9722
SWIDTH 480 0
DWIDTH 5 0
BBX 4 4 0 0
BITMAP
80
C0
A0
F0
ENDCHAR
STARTCHAR uni25FB
ENCODING 9723
SWIDTH 480 0
DWIDTH 5 0
BBX 6 6 0 0
BITMAP
FC
84
84
84
84
FC
ENDCHAR
STARTCHAR uni25FC
ENCODING 9724
SWIDTH 480 0
DWIDTH 5 0
BBX 6 6 0 0
BITMAP
FC
FC
FC
FC
FC
FC
ENDCHAR
STARTCHAR uni25FD
ENCODING 9725
SWIDTH 480 0
DWIDTH 5 0
BBX 5 5 0 1
BITMAP
F8
88
88
88
F8
ENDCHAR
STARTCHAR uni25FE
ENCODING 9726
SWIDTH 480 0
DWIDTH 5 0
BBX 5 5 0 1
BITMAP
F8
F8
F8
F8
F8
ENDCHAR
STARTCHAR uni25FF
ENCODING 9727
SWIDTH 480 0
DWIDTH 5 0
BBX 4 4 2 0
BITMAP
10
30
50
F0
ENDCHAR
STARTCHAR uni2600
ENCODING 9728
SWIDTH 480 0
DWIDTH 5 0
BBX 5 7 0 -1
BITMAP
20
00
A8
70
A8
00
20
ENDCHAR
STARTCHAR uni2601
ENCODING 9729
SWIDTH 480 0
DWIDTH 5 0
BBX 5 3 0 2
BITMAP
50
78
F8
ENDCHAR
STARTCHAR uni2602
ENCODING 9730
SWIDTH 480 0
DWIDTH 5 0
BBX 5 5 0 0
BITMAP
70
F8
20
20
40
ENDCHAR
STARTCHAR uni2604
ENCODING 9732
SWIDTH 480 0
DWIDTH 5 0
BBX 6 6 0 0
BITMAP
20
48
10
44
A8
40
ENDCHAR
STARTCHAR uni2605
ENCODING 9733
SWIDTH 480 0
DWIDTH 5 0
BBX 5 6 0 0
BITMAP
20
20
F8
70
70
88
ENDCHAR
STARTCHAR uni2606
ENCODING 9734
SWIDTH 480 0
DWIDTH 5 0
BBX 5 6 0 0
BITMAP
20
20
D8
50
70
88
ENDCHAR
STARTCHAR spade
ENCODING 9824
SWIDTH 480 0
DWIDTH 5 0
BBX 5 8 0 -1
BITMAP
20
20
70
F8
F8
70
20
70
ENDCHAR
STARTCHAR uni2661
ENCODING 9825
SWIDTH 480 0
DWIDTH 5 0
BBX 5 5 0 0
BITMAP
50
A8
88
50
20
ENDCHAR
STARTCHAR uni2662
ENCODING 9826
SWIDTH 480 0
DWIDTH 5 0
BBX 5 6 0 0
BITMAP
20
50
88
88
50
20
ENDCHAR
STARTCHAR club
ENCODING 9827
SWIDTH 480 0
DWIDTH 5 0
BBX 5 8 0 -1
BITMAP
70
70
20
F8
F8
F8
20
70
ENDCHAR
STARTCHAR uni2664
ENCODING 9828
SWIDTH 480 0
DWIDTH 5 0
BBX 5 8 0 -1
BITMAP
20
20
50
88
88
70
20
70
ENDCHAR
STARTCHAR heart
ENCODING 9829
SWIDTH 480 0
DWIDTH 5 0
BBX 7 6 0 0
BITMAP
6C
FE
FE
7C
38
10
ENDCHAR
STARTCHAR diamond
ENCODING 9830
SWIDTH 480 0
DWIDTH 5 0
BBX 5 9 0 -2
BITMAP
20
20
70
70
F8
70
70
20
20
ENDCHAR
STARTCHAR uni2667
ENCODING 9831
SWIDTH 480 0
DWIDTH 5 0
BBX 5 8 0 -1
BITMAP
70
50
20
F8
A8
F8
20
70
ENDCHAR
STARTCHAR uni2669
ENCODING 9833
SWIDTH 480 0
DWIDTH 5 0
BBX 2 6 1 0
BITMAP
40
40
40
40
C0
C0
ENDCHAR
STARTCHAR musicalnote
ENCODING 9834
SWIDTH 480 0
DWIDTH 5 0
BBX 4 6 1 0
BITMAP
60
50
50
40
C0
C0
ENDCHAR
STARTCHAR musicalnotedbl
ENCODING 9835
SWIDTH 480 0
DWIDTH 5 0
BBX 6 6 0 0
BITMAP
7C
44
44
44
CC
CC
ENDCHAR
STARTCHAR uni266C
ENCODING 9836
SWIDTH 480 0
DWIDTH 5 0
BBX 6 6 0 0
BITMAP
7C
44
7C
44
CC
CC
ENDCHAR
STARTCHAR uni266D
ENCODING 9837
SWIDTH 480 0
DWIDTH 5 0
BBX 3 6 0 0
BITMAP
80
80
80
E0
A0
C0
ENDCHAR
STARTCHAR uni266E
ENCODING 9838
SWIDTH 480 0
DWIDTH 5 0
BBX 4 6 0 0
BITMAP
80
B0
D0
B0
D0
10
ENDCHAR
STARTCHAR uni266F
ENCODING 9839
SWIDTH 480 0
DWIDTH 5 0
BBX 5 6 0 0
BITMAP
10
58
D0
58
D0
40
ENDCHAR
STARTCHAR uni2713
ENCODING 10003
SWIDTH 480 0
DWIDTH 5 0
BBX 5 7 0 -1
BITMAP
08
10
10
A0
A0
40
40
ENDCHAR
STARTCHAR uni2714
ENCODING 10004
SWIDTH 480 0
DWIDTH 5 0
BBX 6 8 0 -1
BITMAP
04
08
08
D0
50
50
20
20
ENDCHAR
STARTCHAR uni2715
ENCODING 10005
SWIDTH 480 0
DWIDTH 5 0
BBX 5 5 0 0
BITMAP
88
50
20
50
88
ENDCHAR
STARTCHAR uni2716
ENCODING 10006
SWIDTH 480 0
DWIDTH 5 0
BBX 5 5 0 0
BITMAP
D8
50
20
50
D8
ENDCHAR
STARTCHAR uni2717
ENCODING 10007
SWIDTH 480 0
DWIDTH 5 0
BBX 5 7 0 0
BITMAP
08
48
50
20
50
90
80
ENDCHAR
STARTCHAR uni2718
ENCODING 10008
SWIDTH 480 0
DWIDTH 5 0
BBX 5 7 0 0
BITMAP
08
58
70
20
70
D0
80
ENDCHAR
STARTCHAR uni271A
ENCODING 10010
SWIDTH 480 0
DWIDTH 5 0
BBX 6 6 0 0
BITMAP
30
30
FC
FC
30
30
ENDCHAR
STARTCHAR uni271B
ENCODING 10011
SWIDTH 480 0
DWIDTH 5 0
BBX 5 5 0 1
BITMAP
20
20
D8
20
20
ENDCHAR
STARTCHAR uni271C
ENCODING 10012
SWIDTH 480 0
DWIDTH 5 0
BBX 6 6 0 0
BITMAP
30
30
CC
CC
30
30
ENDCHAR
STARTCHAR uni271D
ENCODING 10013
SWIDTH 480 0
DWIDTH 5 0
BBX 5 6 0 0
BITMAP
20
20
F8
20
20
20
ENDCHAR
STARTCHAR uni271E
ENCODING 10014
SWIDTH 480 0
DWIDTH 5 0
BBX 6 7 0 0
BITMAP
30
30
FC
FC
30
30
30
ENDCHAR
STARTCHAR uni272A
ENCODING 10026
SWIDTH 480 0
DWIDTH 5 0
BBX 7 8 -1 -1
BITMAP
7C
EE
EE
82
C6
BA
FE
7C
ENDCHAR
STARTCHAR uni272B
ENCODING 10027
SWIDTH 480 0
DWIDTH 5 0
BBX 5 5 0 2
BITMAP
20
20
D8
70
88
ENDCHAR
STARTCHAR uni2733
ENCODING 10035
SWIDTH 480 0
DWIDTH 5 0
BBX 5 7 0 -1
BITMAP
20
A8
70
F8
70
A8
20
ENDCHAR
STARTCHAR uni2736
ENCODING 10038
SWIDTH 480 0
DWIDTH 5 0
BBX 5 6 0 0
BITMAP
20
A8
70
70
A8
20
ENDCHAR
STARTCHAR uni274F
ENCODING 10063
SWIDTH 480 0
DWIDTH 5 0
BBX 6 6 0 1
BITMAP
F8
8C
8C
8C
FC
7C
ENDCHAR
STARTCHAR uni2750
ENCODING 10064
SWIDTH 480 0
DWIDTH 5 0
BBX 6 6 0 1
BITMAP
7C
FC
8C
8C
8C
F8
ENDCHAR
STARTCHAR uni2751
ENCODING 10065
SWIDTH 480 0
DWIDTH 5 0
BBX 6 6 0 1
BITMAP
F8
8C
8C
8C
FC
7C
ENDCHAR
STARTCHAR uni2752
ENCODING 10066
SWIDTH 480 0
DWIDTH 5 0
BBX 6 6 0 1
BITMAP
7C
FC
8C
8C
8C
F8
ENDCHAR
STARTCHAR uni275B
ENCODING 10075
SWIDTH 480 0
DWIDTH 5 0
BBX 2 4 2 3
BITMAP
40
80
C0
C0
ENDCHAR
STARTCHAR uni275C
ENCODING 10076
SWIDTH 480 0
DWIDTH 5 0
BBX 2 4 2 3
BITMAP
C0
C0
40
80
ENDCHAR
STARTCHAR uni275D
ENCODING 10077
SWIDTH 480 0
DWIDTH 5 0
BBX 5 4 1 3
BITMAP
48
90
D8
D8
ENDCHAR
STARTCHAR uni275E
ENCODING 10078
SWIDTH 480 0
DWIDTH 5 0
BBX 5 4 1 3
BITMAP
D8
D8
48
90
ENDCHAR
STARTCHAR uni2760
ENCODING 10080
SWIDTH 480 0
DWIDTH 5 0
BBX 5 4 0 -2
BITMAP
D8
D8
48
90
ENDCHAR
STARTCHAR uni2764
ENCODING 10084
SWIDTH 480 0
DWIDTH 5 0
BBX 7 6 0 0
BITMAP
6C
FE
FE
7C
38
10
ENDCHAR
STARTCHAR uni276C
ENCODING 10092
SWIDTH 480 0
DWIDTH 5 0
BBX 5 7 0 0
BITMAP
18
30
60
C0
60
30
18
ENDCHAR
STARTCHAR uni276D
ENCODING 10093
SWIDTH 480 0
DWIDTH 5 0
BBX 5 7 0 0
BITMAP
C0
60
30
18
30
60
C0
ENDCHAR
STARTCHAR uni276E
ENCODING 10094
SWIDTH 480 0
DWIDTH 5 0
BBX 6 8 0 -1
BITMAP
1C
38
70
E0
E0
70
38
1C
ENDCHAR
STARTCHAR uni276F
ENCODING 10095
SWIDTH 480 0
DWIDTH 5 0
BBX 6 8 0 -1
BITMAP
E0
70
38
1C
1C
38
70
E0
ENDCHAR
STARTCHAR uni2770
ENCODING 10096
SWIDTH 480 0
DWIDTH 5 0
BBX 6 8 0 -1
BITMAP
3C
78
F0
E0
E0
F0
78
3C
ENDCHAR
STARTCHAR uni2771
ENCODING 10097
SWIDTH 480 0
DWIDTH 5 0
BBX 6 8 0 -1
BITMAP
F0
78
3C
1C
1C
3C
78
F0
ENDCHAR
STARTCHAR uni2776
ENCODING 10102
SWIDTH 480 0
DWIDTH 5 0
BBX 6 8 0 -1
BITMAP
F0
78
3C
1C
1C
3C
78
F0
ENDCHAR
STARTCHAR uni278A
ENCODING 10122
SWIDTH 480 0
DWIDTH 5 0
BBX 6 8 0 -1
BITMAP
78
CC
EC
EC
EC
EC
C4
78
ENDCHAR
STARTCHAR uni278B
ENCODING 10123
SWIDTH 480 0
DWIDTH 5 0
BBX 6 8 0 -1
BITMAP
78
CC
B4
F4
EC
DC
84
78
ENDCHAR
STARTCHAR uni278C
ENCODING 10124
SWIDTH 480 0
DWIDTH 5 0
BBX 6 8 0 -1
BITMAP
78
8C
F4
CC
F4
F4
8C
78
ENDCHAR
STARTCHAR uni278D
ENCODING 10125
SWIDTH 480 0
DWIDTH 5 0
BBX 6 8 0 -1
BITMAP
78
E4
D4
B4
84
F4
F4
78
ENDCHAR
STARTCHAR uni278E
ENCODING 10126
SWIDTH 480 0
DWIDTH 5 0
BBX 6 8 0 -1
BITMAP
78
84
BC
8C
F4
F4
8C
78
ENDCHAR
STARTCHAR uni278F
ENCODING 10127
SWIDTH 480 0
DWIDTH 5 0
BBX 6 8 0 -1
BITMAP
78
CC
BC
8C
B4
B4
CC
78
ENDCHAR
STARTCHAR uni2790
ENCODING 10128
SWIDTH 480 0
DWIDTH 5 0
BBX 6 8 0 -1
BITMAP
78
84
F4
EC
EC
DC
DC
78
ENDCHAR
STARTCHAR uni2791
ENCODING 10129
SWIDTH 480 0
DWIDTH 5 0
BBX 6 8 0 -1
BITMAP
78
CC
B4
CC
B4
B4
CC
78
ENDCHAR
STARTCHAR uni2792
ENCODING 10130
SWIDTH 480 0
DWIDTH 5 0
BBX 6 8 0 -1
BITMAP
78
CC
B4
B4
C4
F4
CC
78
ENDCHAR
STARTCHAR uni2793
ENCODING 10131
SWIDTH 480 0
DWIDTH 5 0
BBX 7 8 0 -1
BITMAP
7C
B6
AA
AA
AA
AA
B6
7C
ENDCHAR
STARTCHAR uni2794
ENCODING 10132
SWIDTH 480 0
DWIDTH 5 0
BBX 5 5 0 0
BITMAP
20
10
F8
10
20
ENDCHAR
STARTCHAR uni2795
ENCODING 10133
SWIDTH 480 0
DWIDTH 5 0
BBX 6 6 0 0
BITMAP
30
30
FC
FC
30
30
ENDCHAR
STARTCHAR uni2796
ENCODING 10134
SWIDTH 480 0
DWIDTH 5 0
BBX 6 2 0 2
BITMAP
FC
FC
ENDCHAR
STARTCHAR uni2797
ENCODING 10135
SWIDTH 480 0
DWIDTH 5 0
BBX 6 6 0 0
BITMAP
30
00
FC
FC
00
30
ENDCHAR
STARTCHAR uni2798
ENCODING 10136
SWIDTH 480 0
DWIDTH 5 0
BBX 5 5 0 0
BITMAP
80
40
28
18
38
ENDCHAR
STARTCHAR uni2799
ENCODING 10137
SWIDTH 480 0
DWIDTH 5 0
BBX 5 3 0 1
BITMAP
10
F8
10
ENDCHAR
STARTCHAR uni279A
ENCODING 10138
SWIDTH 480 0
DWIDTH 5 0
BBX 5 5 0 0
BITMAP
38
18
28
40
80
ENDCHAR
STARTCHAR uni279B
ENCODING 10139
SWIDTH 480 0
DWIDTH 5 0
BBX 8 5 -2 0
BITMAP
10
0C
FF
0C
10
ENDCHAR
STARTCHAR uniF329
ENCODING 62249
SWIDTH 500 0
DWIDTH 5 0
BBX 5 8 1 -1
BITMAP
90
B8
90
90
E0
80
80
80
ENDCHAR
STARTCHAR uniF32A
ENCODING 62250
SWIDTH 700 0
DWIDTH 5 0
BBX 4 9 1 -1
BITMAP
80
80
80
F0
00
90
D0
B0
90
ENDCHAR
STARTCHAR uniF32B
ENCODING 62251
SWIDTH 700 0
DWIDTH 5 0
BBX 5 8 1 -1
BITMAP
78
80
98
98
80
98
88
C0
ENDCHAR
STARTCHAR uniF32C
ENCODING 62252
SWIDTH 700 0
DWIDTH 5 0
BBX 6 8 0 -1
BITMAP
F8
04
98
90
90
90
90
60
ENDCHAR
STARTCHAR uniF32D
ENCODING 62253
SWIDTH 700 0
DWIDTH 5 0
BBX 6 9 0 -1
BITMAP
30
48
48
48
FC
CC
CC
FC
78
ENDCHAR
STARTCHAR uniF32E
ENCODING 62254
SWIDTH 700 0
DWIDTH 5 0
BBX 5 9 0 -1
BITMAP
80
C0
E0
F0
F8
F0
E0
C0
80
ENDCHAR
STARTCHAR uniF32F
ENCODING 62255
SWIDTH 700 0
DWIDTH 5 0
BBX 5 9 0 -1
BITMAP
80
40
20
10
08
10
20
40
80
ENDCHAR
STARTCHAR uniF330
ENCODING 62256
SWIDTH 700 0
DWIDTH 5 0
BBX 5 9 0 -1
BITMAP
08
18
38
78
F8
78
38
18
08
ENDCHAR
STARTCHAR uniF331
ENCODING 62257
SWIDTH 700 0
DWIDTH 5 0
BBX 5 9 1 -1
BITMAP
08
10
20
40
80
40
20
10
08
ENDCHAR
STARTCHAR uniF332
ENCODING 62258
SWIDTH 700 0
DWIDTH 5 0
BBX 5 8 1 -1
BITMAP
20
F8
A8
88
88
D8
D8
F8
ENDCHAR
STARTCHAR uniF333
ENCODING 62259
SWIDTH 700 0
DWIDTH 5 0
BBX 5 8 1 -1
BITMAP
20
F8
88
A8
A8
A8
88
F8
ENDCHAR
STARTCHAR uniF334
ENCODING 62260
SWIDTH 700 0
DWIDTH 5 0
BBX 5 8 1 -1
BITMAP
20
F8
88
88
88
88
88
F8
ENDCHAR
STARTCHAR uniF335
ENCODING 62261
SWIDTH 700 0
DWIDTH 5 0
BBX 5 8 1 -1
BITMAP
20
F8
88
88
A8
A8
88
F8
ENDCHAR
STARTCHAR uniF336
ENCODING 62262
SWIDTH 700 0
DWIDTH 5 0
BBX 5 8 1 -1
BITMAP
20
F8
E8
D8
88
D8
B8
F8
ENDCHAR
STARTCHAR uniF337
ENCODING 62263
SWIDTH 700 0
DWIDTH 5 0
BBX 4 7 1 -1
BITMAP
80
C0
E0
F0
E0
C0
80
ENDCHAR
STARTCHAR uniF338
ENCODING 62264
SWIDTH 700 0
DWIDTH 5 0
BBX 5 7 1 -1
BITMAP
D8
D8
D8
D8
D8
D8
D8
ENDCHAR
STARTCHAR uniF339
ENCODING 62265
SWIDTH 700 0
DWIDTH 5 0
BBX 6 6 0 0
BITMAP
7C
44
44
44
CC
CC
ENDCHAR
STARTCHAR uniF33A
ENCODING 62266
SWIDTH 700 0
DWIDTH 5 0
BBX 6 6 0 0
BITMAP
78
DC
DC
C4
FC
78
ENDCHAR
STARTCHAR uniF33B
ENCODING 62267
SWIDTH 700 0
DWIDTH 5 0
BBX 5 7 1 0
BITMAP
20
20
70
70
50
D8
88
ENDCHAR
STARTCHAR uniF33C
ENCODING 62268
SWIDTH 700 0
DWIDTH 5 0
BBX 6 6 0 0
BITMAP
EC
EC
EC
E0
EC
EC
ENDCHAR
STARTCHAR uniF33D
ENCODING 62269
SWIDTH 700 0
DWIDTH 5 0
BBX 6 6 0 0
BITMAP
DC
DC
DC
1C
DC
DC
ENDCHAR
STARTCHAR uniF33E
ENCODING 62270
SWIDTH 700 0
DWIDTH 5 0
BBX 6 6 0 0
BITMAP
FC
FC
FC
00
EC
EC
ENDCHAR
STARTCHAR uniF33F
ENCODING 62271
SWIDTH 700 0
DWIDTH 5 0
BBX 6 6 0 0
BITMAP
F0
F0
F4
F4
04
3C
ENDCHAR
STARTCHAR uniF340
ENCODING 62272
SWIDTH 700 0
DWIDTH 5 0
BBX 5 6 1 0
BITMAP
70
88
88
88
D8
50
ENDCHAR
STARTCHAR uniF341
ENCODING 62273
SWIDTH 700 0
DWIDTH 5 0
BBX 6 6 0 0
BITMAP
90
50
A0
D0
38
14
ENDCHAR
STARTCHAR uniF342
ENCODING 62274
SWIDTH 700 0
DWIDTH 5 0
BBX 6 6 0 0
BITMAP
10
34
F4
F4
34
10
ENDCHAR
STARTCHAR uniF343
ENCODING 62275
SWIDTH 700 0
DWIDTH 5 0
BBX 4 6 0 0
BITMAP
10
30
F0
F0
30
10
ENDCHAR
STARTCHAR uniF344
ENCODING 62276
SWIDTH 700 0
DWIDTH 5 0
BBX 5 5 1 0
BITMAP
50
F8
F8
70
20
ENDCHAR
STARTCHAR uniF345
ENCODING 62277
SWIDTH 700 0
DWIDTH 5 0
BBX 5 6 1 0
BITMAP
A8
00
F8
F8
00
A8
ENDCHAR
STARTCHAR uniF346
ENCODING 62278
SWIDTH 700 0
DWIDTH 5 0
BBX 5 5 1 0
BITMAP
70
D8
F8
C0
70
ENDCHAR
STARTCHAR uniF347
ENCODING 62279
SWIDTH 700 0
DWIDTH 5 0
BBX 5 5 1 0
BITMAP
F8
70
A8
D8
F8
ENDCHAR
STARTCHAR uniF348
ENCODING 62280
SWIDTH 700 0
DWIDTH 5 0
BBX 6 6 0 0
BITMAP
FC
84
84
BC
AC
7C
ENDCHAR
STARTCHAR uniF349
ENCODING 62281
SWIDTH 700 0
DWIDTH 5 0
BBX 7 7 -1 -1
BITMAP
64
BA
7E
6C
FC
BA
4C
ENDCHAR
STARTCHAR uniF34A
ENCODING 62282
SWIDTH 700 0
DWIDTH 5 0
BBX 7 7 0 -1
BITMAP
D6
82
38
BA
38
82
D6
ENDCHAR
STARTCHAR uniF34B
ENCODING 62283
SWIDTH 700 0
DWIDTH 5 0
BBX 5 5 0 0
BITMAP
D8
D8
00
D8
D8
ENDCHAR
STARTCHAR uniF34C
ENCODING 62284
SWIDTH 700 0
DWIDTH 5 0
BBX 6 6 0 0
BITMAP
EC
E0
EC
E0
EC
EC
ENDCHAR
STARTCHAR uniF34D
ENCODING 62285
SWIDTH 700 0
DWIDTH 5 0
BBX 6 6 0 0
BITMAP
FC
BC
DC
A4
FC
FC
ENDCHAR
STARTCHAR uniF34E
ENCODING 62286
SWIDTH 700 0
DWIDTH 5 0
BBX 5 7 1 -1
BITMAP
70
50
50
F8
D8
F8
70
ENDCHAR
STARTCHAR uniF34F
ENCODING 62287
SWIDTH 700 0
DWIDTH 5 0
BBX 4 1 0 3
BITMAP
F0
ENDCHAR
STARTCHAR uniF350
ENCODING 62288
SWIDTH 700 0
DWIDTH 5 0
BBX 4 3 0 2
BITMAP
F0
00
F0
ENDCHAR
STARTCHAR uniF351
ENCODING 62289
SWIDTH 700 0
DWIDTH 5 0
BBX 5 5 0 1
BITMAP
F8
00
70
00
F8
ENDCHAR
STARTCHAR uniF352
ENCODING 62290
SWIDTH 700 0
DWIDTH 5 0
BBX 5 5 0 1
BITMAP
F8
A8
F8
88
F8
ENDCHAR
STARTCHAR uniF353
ENCODING 62291
SWIDTH 700 0
DWIDTH 5 0
BBX 5 5 0 1
BITMAP
F0
40
70
50
F8
ENDCHAR
STARTCHAR uniF354
ENCODING 62292
SWIDTH 700 0
DWIDTH 5 0
BBX 5 4 1 0
BITMAP
F8
50
50
50
ENDCHAR
STARTCHAR uniF355
ENCODING 62293
SWIDTH 700 0
DWIDTH 5 0
BBX 4 5 2 0
BITMAP
50
A0
00
50
A0
ENDCHAR
STARTCHAR uniF356
ENCODING 62294
SWIDTH 700 0
DWIDTH 5 0
BBX 6 7 1 -1
BITMAP
84
C4
E4
F4
E4
C4
84
ENDCHAR
STARTCHAR uniF357
ENCODING 62295
SWIDTH 700 0
DWIDTH 5 0
BBX 6 7 1 -1
BITMAP
84
8C
9C
BC
9C
8C
84
ENDCHAR
STARTCHAR uniF358
ENCODING 62296
SWIDTH 700 0
DWIDTH 5 0
BBX 7 8 0 -1
BITMAP
10
38
7C
FE
38
38
38
70
ENDCHAR
STARTCHAR uniF359
ENCODING 62297
SWIDTH 700 0
DWIDTH 5 0
BBX 7 8 0 -1
BITMAP
1C
38
38
38
FE
7C
38
10
ENDCHAR
STARTCHAR uniF35A
ENCODING 62298
SWIDTH 700 0
DWIDTH 5 0
BBX 5 1 1 2
BITMAP
F8
ENDCHAR
STARTCHAR uniF35B
ENCODING 62299
SWIDTH 700 0
DWIDTH 5 0
BBX 5 6 1 0
BITMAP
08
08
28
28
A8
A8
ENDCHAR
STARTCHAR uniF35C
ENCODING 62300
SWIDTH 700 0
DWIDTH 5 0
BBX 5 4 1 0
BITMAP
20
20
A0
A8
ENDCHAR
STARTCHAR uniF35D
ENCODING 62301
SWIDTH 700 0
DWIDTH 5 0
BBX 5 2 1 0
BITMAP
80
A8
ENDCHAR
STARTCHAR uniF35E
ENCODING 62302
SWIDTH 700 0
DWIDTH 5 0
BBX 7 8 0 -1
BITMAP
10
06
4E
14
68
90
90
60
ENDCHAR
STARTCHAR uniF35F
ENCODING 62303
SWIDTH 700 0
DWIDTH 5 0
BBX 7 7 0 -1
BITMAP
06
1E
3C
3C
78
A0
C0
ENDCHAR
ENDFONT
